<?xml version="1.0" standalone="no"?>
<!DOCTYPE svg PUBLIC "-//W3C//DTD SVG 1.1//EN" "http://www.w3.org/Graphics/SVG/1.1/DTD/svg11.dtd" >
<!--
2013-9-30: Created.
-->
<svg>
<metadata>
Created by iconfont
</metadata>
<defs>

<font id="iconfont" horiz-adv-x="1024" >
  <font-face
    font-family="iconfont"
    font-weight="500"
    font-stretch="normal"
    units-per-em="1024"
    ascent="896"
    descent="-128"
  />
    <missing-glyph />
    
    <glyph glyph-name="x" unicode="x" horiz-adv-x="1001"
d="M281 543q-27 -1 -53 -1h-83q-18 0 -36.5 -6t-32.5 -18.5t-23 -32t-9 -45.5v-76h912v41q0 16 -0.5 30t-0.5 18q0 13 -5 29t-17 29.5t-31.5 22.5t-49.5 9h-133v-97h-438v97zM955 310v-52q0 -23 0.5 -52t0.5 -58t-10.5 -47.5t-26 -30t-33 -16t-31.5 -4.5q-14 -1 -29.5 -0.5
t-29.5 0.5h-32l-45 128h-439l-44 -128h-29h-34q-20 0 -45 1q-25 0 -41 9.5t-25.5 23t-13.5 29.5t-4 30v167h911zM163 247q-12 0 -21 -8.5t-9 -21.5t9 -21.5t21 -8.5q13 0 22 8.5t9 21.5t-9 21.5t-22 8.5zM316 123q-8 -26 -14 -48q-5 -19 -10.5 -37t-7.5 -25t-3 -15t1 -14.5
t9.5 -10.5t21.5 -4h37h67h81h80h64h36q23 0 34 12t2 38q-5 13 -9.5 30.5t-9.5 34.5q-5 19 -11 39h-368zM336 498v228q0 11 2.5 23t10 21.5t20.5 15.5t34 6h188q31 0 51.5 -14.5t20.5 -52.5v-227h-327z" />
    

    
    <glyph glyph-name="like" unicode="&#58972;" d="M826.237891 716.729034c-39.543621 27.679409-84.441181 40.470737-129.299855 40.470737-68.500117 0-136.89688-29.7997-186.082092-81.875752-49.177026 52.068889-117.591185 81.875752-186.083116 81.875752-44.858674 0-89.74907-12.783141-129.298831-40.470737C85.5924 639.779478 58.878992 488.328114 135.820362 378.438331c0 0 30.274514-38.451754 50.41011-60.385299 16.493649-17.98256 246.951415-239.220337 309.137733-297.859875 0 0 7.382131-7.061836 15.533788-7.061836 8.80862 0 15.426341 7.061836 15.426341 7.061836C588.507488 78.832695 818.98879 300.069449 835.482439 318.053032c20.133549 21.933545 50.399877 60.385299 50.399877 60.385299C962.831872 488.328114 936.12665 639.779478 826.237891 716.729034zM847.399863 406.982434c-4.940522-6.251378-30.343075-38.186717-47.195905-56.55097-13.873985-15.058974-236.016365-227.823775-281.241382-271.123954l0 0c-1.963725-2.509147-5.042853-3.740184-8.480138-3.740184-1.707898 0-3.477194 0.490164-5.098111 1.199315-38.170345 36.542264-269.618671 258.193457-283.875372 273.664823-16.850783 18.364253-42.247196 50.291406-47.195905 56.55097-29.323862 42.466184-40.524972 93.76964-31.561833 144.638191 9.05012 51.297316 37.523615 96.000448 80.193437 125.877919 29.720905 20.812001 64.936965 31.810496 101.830223 31.810496 55.997362 0 111.129007-24.375154 151.264099-66.871013l34.817993-36.861536 34.82004 36.861536c40.134069 42.496883 95.265714 66.871013 151.263076 66.871013 36.893258 0 72.109318-10.998495 101.830223-31.810496 42.668799-29.877471 71.143317-74.580602 80.193437-125.877919C887.933021 500.753097 876.724749 449.448618 847.399863 406.982434z"  horiz-adv-x="1024" />

    
    <glyph glyph-name="deliver" unicode="&#58897;" d="M266.560008 264.585283c-67.661006 0-122.714879-55.04364-122.714879-122.714879 0-67.661006 55.053873-122.714879 122.714879-122.714879s122.714879 55.053873 122.714879 122.714879C389.274888 209.541643 334.221014 264.585283 266.560008 264.585283zM266.560008 60.067306c-45.107337 0-81.803097 36.69576-81.803097 81.803097s36.69576 81.813331 81.803097 81.813331 81.813331-36.705993 81.813331-81.813331S311.667346 60.067306 266.560008 60.067306zM798.315958 19.159618c-67.663052 0-122.711809 55.048757-122.711809 122.712833s55.048757 122.712833 122.711809 122.712833c67.664076 0 122.712833-55.048757 122.712833-122.712833S865.980034 19.159618 798.315958 19.159618zM798.315958 223.680665c-45.108361 0-81.807191-36.69883-81.807191-81.808214s36.69883-81.808214 81.807191-81.808214c45.109384 0 81.808214 36.69883 81.808214 81.808214S843.425342 223.680665 798.315958 223.680665zM593.823564 613.328036 593.823564 162.295596 593.792864 162.295596 593.792864 612.27403ZM1023.284709 379.430938l0-237.560534c0-11.2973-9.148357-20.445658-20.445658-20.445658l-40.901549 0c-11.2973 0-20.455891 9.148357-20.455891 20.445658s9.15859 20.455891 20.455891 20.455891l20.445658 0 0 211.251332-135.976928 218.240513-211.701586 0 0-449.947735c0-11.2973-9.15859-20.445658-20.455891-20.445658-0.23536 0-0.470721 0-0.706081 0.020466l-162.265664 0c-11.276834 0-20.425192 9.148357-20.425192 20.425192 0 11.287067 9.148357 20.425192 20.425192 20.425192l142.546553 0 0 572.71378L41.565674 735.009376l0-572.71378 51.79976 0c11.276834 0 20.425192-9.138124 20.425192-20.425192 0-11.276834-9.148357-20.425192-20.425192-20.425192l-72.224951 0c-11.287067 0-20.425192 9.148357-20.425192 20.425192l0 613.564163c0 11.276834 9.138124 20.425192 20.425192 20.425192l593.108273 0c11.276834 0 20.425192-9.148357 20.425192-20.425192l0-122.714879 223.090984 0c7.060813 0 13.620206-3.64297 17.355273-9.629311l145.07412-232.843092C1022.220471 386.993171 1023.284709 383.24787 1023.284709 379.430938zM818.275545 394.749832 727.620849 394.54517 727.201294 502.770034 817.968553 502.770034Z"  horiz-adv-x="1024" />

    
    <glyph glyph-name="edit" unicode="&#59038;" d="M34.155089 665.059773 9.17948 665.059773 9.17948 639.796614 9.17948 41.841988C9.17948-27.769568 65.248004-84.289737 134.081773-84.289737L927.938515-84.289737 952.914125-84.289737 952.914125-59.026579 952.914125 424.899439C952.914125 438.851895 941.732164 450.162598 927.938515 450.162598 914.144868 450.162598 902.962906 438.851895 902.962906 424.899439L902.962906-59.026579 927.938515-33.76342 134.081773-33.76342C92.797081-33.76342 59.130699 0.174153 59.130699 41.841988L59.130699 639.796614 34.155089 614.533457 598.93821 614.533457C612.731859 614.533457 623.91382 625.844158 623.91382 639.796614 623.91382 653.749072 612.731859 665.059773 598.93821 665.059773L34.155089 665.059773ZM437.016339 302.496211 431.876019 295.895108 431.668623 287.494786 427.984924 138.290259 427.077935 101.553579 461.312335 113.853545 605.005395 165.480553 611.980762 167.986709 616.479561 173.932757 1003.181673 685.035772 1018.529978 705.321579 998.306108 720.620695 869.49174 818.067219 849.985487 832.823464 834.913446 813.46823 437.016339 302.496211ZM839.575373 777.604982 968.389739 680.158458 963.514174 715.743381 576.81206 204.640367 588.286225 213.092572 444.593165 161.465564 477.920574 137.028849 481.604275 286.233378 476.256559 271.231953 874.153664 782.20397 839.575373 777.604982ZM891.217762 585.494287 920.474916 626.446748 808.309143 708.435734 779.051989 667.483275 891.217762 585.494287Z"  horiz-adv-x="1024" />

    
    <glyph glyph-name="like1" unicode="&#59289;" d="M933.248 560.896c-40 10.496-134.048 10.368-271.616 14.016 6.496 30.016 8 57.088 8 105.152 0 114.816-83.648 215.936-157.632 215.936-52.256 0-95.328-42.72-96-95.264-0.704-64.448-20.64-175.744-128-232.192-7.872-4.16-30.4-15.264-33.696-16.704l1.696-1.44c-16.8 14.496-40.096 25.6-64 25.6l-96 0c-52.928 0-96-43.072-96-96l0-512c0-52.928 43.072-96 96-96l96 0c38.08 0 69.952 23.008 85.376 55.264 0.384-0.128 1.056-0.32 1.504-0.384 2.112-0.576 4.608-1.184 7.648-1.984 0.576-0.16 0.864-0.224 1.472-0.384 18.432-4.576 53.92-13.056 129.76-30.496 16.256-3.712 102.144-22.016 191.104-22.016l174.944 0c53.312 0 91.744 20.512 114.624 61.696 0.32 0.64 7.68 15.008 13.696 34.432 4.512 14.624 6.176 35.328 0.736 56.32 34.368 23.616 45.44 59.328 52.64 82.56 12.064 38.112 8.448 66.752 0.064 87.264 19.328 18.24 35.808 46.048 42.752 88.512 4.32 26.304-0.32 53.376-12.448 75.904 18.112 20.352 26.368 45.952 27.328 69.632l0.384 6.688c0.224 4.192 0.416 6.784 0.416 16 0 40.416-28 91.968-90.752 109.888zM224-32c0-17.696-14.304-32-32-32l-96 0c-17.696 0-32 14.304-32 32l0 512c0 17.696 14.304 32 32 32l96 0c17.696 0 32-14.304 32-32l0-512zM959.264 430.88c-0.64-15.808-7.264-46.88-63.264-46.88-48 0-64 0-64 0-8.864 0-16-7.168-16-16s7.136-16 16-16c0 0 14.016 0 62.016 0s54.304-39.808 51.2-59.008c-3.968-23.872-15.168-68.992-69.216-68.992-53.984 0-76 0-76 0-8.864 0-16-7.136-16-16 0-8.8 7.136-16 16-16 0 0 38.016 0 63.008 0 54.016 0 49.248-41.184 41.504-65.76-10.208-32.288-16.448-62.24-84.512-62.24-23.008 0-52.192 0-52.192 0-8.864 0-16-7.136-16-16 0-8.8 7.136-16 16-16 0 0 22.176 0 50.176 0 35.008 0 36.64-33.12 32.992-44.992-4-12.992-8.736-22.624-8.928-23.072-9.664-17.44-25.248-27.936-58.24-27.936l-174.944 0c-87.872 0-175.04 19.936-177.28 20.448-132.928 30.624-139.936 32.992-148.288 35.36 0 0-27.072 4.576-27.072 28.192l-0.224 441.984c0 15.008 9.568 28.576 25.408 33.344 1.984 0.768 4.672 1.6 6.592 2.4 146.176 60.544 190.688 193.28 192 302.272 0.192 15.328 12 32 32 32 33.824 0 93.632-67.904 93.632-151.936 0-75.872-3.072-88.992-29.632-168.064 320 0 317.76-4.608 345.984-12 35.008-10.016 38.016-39.008 38.016-48.992 0-10.976-0.32-9.376-0.736-20.128zM144 64c-26.496 0-48-21.504-48-48s21.504-48 48-48 48 21.504 48 48-21.504 48-48 48zM144 0c-8.8 0-16 7.2-16 16s7.2 16 16 16 16-7.2 16-16-7.2-16-16-16z"  horiz-adv-x="1024" />

    
    <glyph glyph-name="xiazai" unicode="&#58901;" d="M984.32-57.6 39.68-57.6c-14.14144 0-25.6-11.45856-25.6-25.6s11.45856-25.6 25.6-25.6l944.64 0c14.14144 0 25.6 11.45856 25.6 25.6S998.46144-57.6 984.32-57.6zM493.8752 24.33024c1.19808-1.20832 2.51904-2.28352 3.9424-3.2256 0.58368-0.38912 1.2288-0.65536 1.8432-1.00352 0.84992-0.4608 1.65888-0.9728 2.56-1.34144 0.82944-0.33792 1.67936-0.54272 2.52928-0.78848 0.74752-0.21504 1.46432-0.512 2.24256-0.6656 1.65888-0.31744 3.328-0.50176 5.00736-0.50176s3.35872 0.18432 5.00736 0.50176c0.77824 0.16384 1.49504 0.45056 2.2528 0.6656 0.84992 0.24576 1.71008 0.45056 2.52928 0.78848 0.90112 0.36864 1.72032 0.88064 2.57024 1.35168 0.60416 0.33792 1.23904 0.60416 1.83296 0.99328 1.41312 0.95232 2.74432 2.01728 3.9424 3.2256L917.8624 412.0576c10.00448 10.00448 10.00448 26.20416 0 36.1984-9.99424 10.00448-26.2144 10.00448-36.1984 0l-344.064-344.064L537.6 851.2c0 14.14144-11.45856 25.6-25.6 25.6s-25.6-11.45856-25.6-25.6l0-746.99776-344.064 344.064c-9.99424 10.00448-26.2144 10.00448-36.1984 0-10.00448-10.00448-10.00448-26.20416 0-36.1984L493.8752 24.33024z"  horiz-adv-x="1024" />

    
    <glyph glyph-name="paper-airplane" unicode="&#58963;" d="M974.592 757.056c-8.832 7.168-19.648 10.944-30.592 10.944-7.296 0-14.656-1.664-21.44-5.056l-864-432c-15.168-7.616-25.216-22.656-26.432-39.552s6.656-33.216 20.544-42.88l219.456-151.872c0-0.256-0.128-0.448-0.128-0.64v-240c0-20.8 13.44-39.232 33.28-45.696 4.864-1.536 9.856-2.304 14.72-2.304 15.104 0 29.76 7.104 38.912 19.904l100.416 139.136 217.344-150.528c8.128-5.632 17.728-8.512 27.328-8.512 5.504 0 11.072 0.96 16.384 2.88 14.592 5.248 25.728 17.344 29.888 32.256l240 864c5.12 18.304-1.088 37.888-15.68 49.92zM295.168 139.008l-215.168 148.992 728.256 364.096-513.088-513.088zM320-144v240l624 624-624-864zM704-144l-216.512 149.888 419.52 580.864-203.008-730.752z"  horiz-adv-x="1024" />

    
    <glyph glyph-name="yejinkuangchan" unicode="&#59123;" d="M671.969054 383.976454c-17.625391 0-31.999745-14.311932-31.999745-31.998722 0-17.685766 14.374354-31.998722 31.999745-31.998722 17.748188 0 31.998722 14.311932 31.998722 31.998722C703.966753 369.664522 689.716219 383.976454 671.969054 383.976454zM991.952176 255.982591l-63.997443 0-0.187265 0c-0.063445 3.781109-0.500396 7.655339-1.938138 11.405748l-127.992839 335.982483c-4.687756 12.405516-16.6246 20.592973-29.873319 20.592973l-127.993863 0c-7.749483 0-15.248255-2.813063-21.060623-7.906048l-38.24804-33.467163-107.245347 140.773909c-8.000192 10.530823-21.87415 15.030292-34.37381 11.312628l-255.986702-74.683809c-11.749579-3.437279-20.561251-13.249742-22.624232-25.311429l-63.99642-373.293176c-0.313131-1.843994 0.187265-3.593844 0.187265-5.406116l-0.625239 0-63.997443 0c-17.624368 0-31.998722-14.311932-31.998722-31.998722s14.374354-31.998722 31.998722-31.998722l51.185675 0 76.809211-170.615505c0-11.812 14.374354-21.374778 31.998722-21.374778l5.874789 0c-3.562122-10.031451-5.874789-20.717816-5.874789-31.999745 0-53.060368 42.998218-95.995141 95.995141-95.995141 53.12279 0 95.995141 42.934773 95.995141 95.995141 0 11.280905-2.312667 21.968294-5.874789 31.999745l267.737304 0c-3.562122-10.031451-5.874789-20.717816-5.874789-31.999745 0-53.060368 42.998218-95.995141 95.996165-95.995141 53.121766 0 95.995141 42.934773 95.995141 95.995141 0 11.280905-2.312667 21.968294-5.873766 31.999745l5.873766 0c17.750234 0 31.998722 9.562778 31.998722 21.374778l76.809211 170.615505 51.185675 0c17.749211 0 31.998722 14.311932 31.998722 31.998722S1009.701387 255.982591 991.952176 255.982591zM220.178215 604.15365l215.677727 62.93423 114.681699-150.523951c5.374394-7.031123 13.437007-11.530591 22.248679-12.437239 8.624408-0.561794 17.560923 1.938138 24.247192 7.749483l54.935061 48.091203 93.934207 0 115.80631-303.984784-701.215092 0L220.178215 604.15365zM319.985164-32.002833c0-17.654044-14.374354-31.998722-31.998722-31.998722s-31.998722 14.344678-31.998722 31.998722c0 17.65609 14.374354 31.999745 31.998722 31.999745S319.985164-14.346742 319.985164-32.002833zM767.963172-32.002833c0-17.654044-14.374354-31.998722-31.998722-31.998722s-31.998722 14.344678-31.998722 31.998722c0 17.65609 14.374354 31.999745 31.998722 31.999745S767.963172-14.346742 767.963172-32.002833zM812.960927 63.992309l-601.969936 0-57.622258 127.993863 717.214453 0L812.960927 63.992309zM406.605816 470.597105c-12.498637 12.498637-32.748803 12.498637-45.248464 0l-63.99642-63.997443c-12.49966-12.49966-12.49966-32.74778 0-45.247441 12.498637-12.49966 32.74778-12.49966 45.247441 0l41.373211 41.372188 41.373211-41.372188c6.249319-6.249319 14.436775-9.375513 22.623209-9.375513 8.187457 0 16.374913 3.126194 22.624232 9.375513 12.49966 12.498637 12.49966 32.74778 0 45.247441L406.605816 470.597105z"  horiz-adv-x="1025" />

    
    <glyph glyph-name="diqiuyi" unicode="&#58891;" d="M512-51.106726c-239.915162 0-435.106726 195.191564-435.106726 435.106726S272.084838 819.106726 512 819.106726s435.106726-195.191564 435.106726-435.106726S751.915162-51.106726 512-51.106726zM512 784.980487c-221.1027 0-400.980487-179.877787-400.980487-400.980487s179.877787-400.980487 400.980487-400.980487 400.980487 179.877787 400.980487 400.980487S733.1027 784.980487 512 784.980487zM499.827773 185.251424 328.123133 337.868333 456.011848 557.104523 590.016865 674.363134 606.079702 770.725832 639.739313 765.109927 621.675912 656.716218 482.673068 535.093207 371.680161 344.816582 507.10962 224.425631 621.142769 267.191644 603.838661 388.290723 764.645091 428.490284 831.648111 361.488287 923.478586 399.746636 936.608627 368.253364 823.682695 321.196629 754.180761 390.698562 641.980353 362.64667 658.801461 244.863103ZM243.082294 78.716039 209.306027 83.54809 227.294726 204.580654 172.20606 254.77894 86.50212 254.77894 86.50212 288.548044 186.336896 288.548044 263.48702 216.466356ZM113.827465 495.143333 108.211561 528.80192 201.116507 544.290683 234.092549 626.714927 300.144918 659.741112 315.949882 770.333906 349.72615 765.501854 331.404875 637.212002 260.953314 601.986733 225.669716 513.780809Z"  horiz-adv-x="1024" />

    
    <glyph glyph-name="jiaju" unicode="&#58909;" d="M341.394864 447.519554 683.362082 447.519554C730.462021 447.519554 768.785852 485.837315 768.785852 532.938132L768.785852 810.568477C768.784901 857.67222 730.460997 896 683.362082 896L341.394864 896C294.294924 896 255.977017 857.67222 255.977017 810.568477L255.977017 532.938132C255.977017 485.837315 294.295875 447.519554 341.394864 447.519554L341.394864 447.519554 341.394864 447.519554ZM320.953016 803.569253C320.953016 818.71058 333.268705 831.025172 348.396063 831.025172L676.361833 831.025172C691.489192 831.025172 703.804881 818.71058 703.804881 803.569253L703.804881 538.936433C703.804881 523.8071 691.490216 511.492508 676.361833 511.492508L348.394089 511.492508C333.267754 511.492508 320.951041 523.808124 320.951041 538.936433L320.952065 803.569253 320.953016 803.569253ZM936.368873 567.469336 862.686756 567.469336C813.530045 567.469336 768.775906 525.328963 768.775906 479.053034L768.775906 378.272188C760.120835 381.234881 750.989803 383.201623 741.341854 383.201623L284.41799 383.201623C274.766018 383.201623 265.630013 381.235905 256.969896 378.266191L256.969896 479.053034C256.969896 527.810648 219.910932 567.469336 174.372787 567.469336L98.942894 567.469336C50.336157 567.469336 0.057557 525.328963 0.057557 479.052083L0.057557 35.488055C0.057557-9.241 48.920266-63.894965 98.942894-63.894965L192.035877-63.894965 192.035877-127.887884 255.978041-127.887884 255.978041-63.894965 767.972958-63.894965 767.972958-127.887884 831.952056-127.887884 831.952056-63.858982 936.369824-63.893941C984.440702-63.893941 1023.945441-11.52171 1023.945441 35.489079L1023.945441 479.053034C1023.945441 528.631587 982.109968 567.469336 936.369824 567.470287L936.369824 567.470287 936.368873 567.469336ZM256.975893 291.763755C256.975893 306.910055 269.285585 319.222746 284.413968 319.222746L741.339806 319.222746C756.436229 319.222746 768.722883 306.955106 768.773858 291.859781L768.773858 219.299772C768.722883 204.200424 756.436229 191.955822 741.34083 191.956773L284.416966 191.956773C269.289608 191.956773 256.978892 204.256445 256.978892 219.39375L256.977941 291.762731 256.975893 291.763755ZM959.964296 40.488504C959.964296 20.502724 946.116798-0.919936 936.368873-0.919936L98.940919-0.919936C85.240422-0.919936 64.03468 24.23933 64.033656 40.488504L64.033656 479.053034C64.033656 493.274471 82.623657 509.493733 98.939895 509.493733L168.366442 509.493733C183.58083 509.493733 192.988824 493.690462 192.988824 479.053034L192.988824 122.979421 832.755003 122.979421 832.755003 208.301973C832.755003 208.341977 832.765973 208.360992 832.765973 208.396975L832.765973 346.762697C832.765973 346.787709 832.755003 346.824642 832.755003 346.853677L832.755003 479.052083C832.755003 492.990562 852.230886 509.492709 868.686154 509.492709L936.369824 509.492709C951.138237 509.492709 959.96532 494.017448 959.96532 479.052083L959.964296 40.487553 959.964296 40.488504Z"  horiz-adv-x="1024" />

    
    <glyph glyph-name="iconfontzuo" unicode="&#58904;" d="M480 832C214.912 832 0 617.088 0 352 0 86.912 214.912-128 480-128c265.088 0 480 214.912 480 480C960 617.088 745.088 832 480 832zM480-64C250.624-64 64 122.624 64 352S250.624 768 480 768 896 581.376 896 352 709.376-64 480-64zM542.528 128.384c-8.192 0-16.384 3.136-22.656 9.344L328.32 329.344c-0.064 0-0.064 0.064-0.064 0.064 0 0 0 0-0.064 0.064 0 0 0 0 0 0 0 0 0 0-0.064 0.064l0 0c0 0 0 0-0.064 0.064l0 0c0 0-0.064 0.064-0.064 0.064s0 0 0 0c0 0 0.448 0 0.448 0.064l0 0C322.624 335.744 320 343.488 320 351.232l0 0c0 0 0 0.064 0 0.064 0 0-0.512 0-0.512 0 0 0-0.256 0-0.256 0.064 0 0 0.384 0 0.384 0 0 0 0.384 0 0.384 0.064 0 0 0 0 0 0.064l-0.512 0c0 0-0.256 0-0.256 0.064 0 0-0.128 0-0.128 0 0 0-0.064 0-0.064 0.064 0 0 0 0 0 0 0 0 0 0 0 0.064l0 0 0 0c0 0 0 0.064 0 0.064 0 0 0 0 0 0 0 0 0 0.064 0 0.064 0 0 0 0 0 0 0 0 0.512 0.064 0.512 0.064l0.512 0c0 0.064 0 0.064 0 0.064 0 0-0.512 0.064-0.512 0.064 0 0-0.256 0-0.256 0 0 0 0.384 0.064 0.384 0.064 0 0 0.384 0 0.384 0 0 0 0 0.064 0 0.064l0 0c0 7.808 2.624 15.488 8.448 21.504l0 0c0 0-0.192 0.064-0.192 0.064 0 0-0.064 0-0.064 0s0 0 0 0.064l0 0c0 0 0 0 0 0.064l0 0c0 0 0.064 0.064 0.064 0.064 0 0 0 0 0 0 0 0 0 0 0.064 0.064 0 0 0 0 0.064 0.064l192.768 192.832c12.48 12.48 32.768 12.48 45.248 0s12.48-32.768 0-45.248L396.224 351.936l168.896-168.96c12.48-12.48 12.48-32.768 0-45.248C558.848 131.52 550.656 128.384 542.528 128.384z"  horiz-adv-x="1024" />

    
    <glyph glyph-name="wxbbiaowang" unicode="&#58905;" d="M900.75249 613.646284c-36.104289 0-65.428152-29.606295-65.428152-66.23247 0-11.192923 3.052522-21.620413 7.884574-30.905894-32.695656-23.393803-71.771627-36.760229-112.574938-36.760229-91.393523 0-167.723979 64.032362-189.120288 149.97985 21.396309 10.901281 36.238342 33.082466 36.238342 58.988486 0 36.557614-29.328979 66.231447-65.389266 66.231447-36.193317 0-65.433268-29.674856-65.433268-66.231447 0-25.904996 14.750959-48.087205 36.19434-58.988486-21.352307-85.947488-97.729835-149.97985-189.123358-149.97985-37.611619 0-73.806983 11.818163-105.016799 31.983435 6.512321 10.339486 10.432607 22.562878 10.432607 35.682687 0 36.626175-29.262464 66.23247-65.434292 66.23247-36.105313 0-65.410756-29.606295-65.410756-66.23247 0-34.719756 26.5374-62.934355 60.162218-65.693188l173.152619-429.800883L722.352357 51.919742l175.169555 429.621804c1.063215-0.089028 2.125407-0.361227 3.230578-0.361227 36.153408 0 65.435315 29.674856 65.435315 66.23247C966.188828 584.039989 936.905898 613.646284 900.75249 613.646284M693.20041 97.855958 331.16798 97.855958 188.780039 458.710562c32.540114-16.014742 68.423369-24.89704 105.216343-24.89704 96.887654 0 180.087565 58.539254 218.364333 142.221142C550.549479 492.351754 633.747343 433.813522 730.633974 433.813522c37.702694 0 74.16514 9.151427 107.081831 25.727964L693.20041 97.855958z"  horiz-adv-x="1024" />

    
    <glyph glyph-name="jinggaowarning21" unicode="&#59104;" d="M892.7744 100.47488 542.93504 706.38592c-6.4 11.08992-18.23744 17.92-31.03744 17.92s-24.63744-6.83008-31.03744-17.92L129.29024 97.46432c-6.4-11.08992-6.4-24.75008 0-35.84s18.23744-17.92 31.03744-17.92l703.13984 0c0.07168 0 0.1536-0.01024 0.2048 0 19.80416 0 35.84 16.04608 35.84 35.84C899.51232 87.35744 897.01376 94.58688 892.7744 100.47488zM222.4128 115.38432 511.8976 616.78592l289.49504-501.41184L222.4128 115.37408zM593.14176 430.08l-98.21184-109.13792 87.28576 0-174.592-174.58176 65.4848 141.84448-76.38016 0L484.01408 430.08 593.14176 430.08z"  horiz-adv-x="1024" />

    
    <glyph glyph-name="paixujiantoushang" unicode="&#59390;" d="M758.4 510.08 539.52 755.84c-14.72 16.64-40.32 16.64-54.4 0L266.24 510.08C244.48 486.4 261.76 448 293.12 448l437.76 0C762.88 448 779.52 486.4 758.4 510.08z"  horiz-adv-x="1024" />

    
    <glyph glyph-name="paixujiantouxia" unicode="&#59391;" d="M757.76 258.56l-218.88-245.76c-14.72-16.64-40.32-16.64-54.4 0L265.6 258.56C244.48 282.24 261.12 320 293.12 320l437.76 0C762.24 320 779.52 282.24 757.76 258.56z"  horiz-adv-x="1024" />

    
    <glyph glyph-name="iconfonthuangguan" unicode="&#58940;" d="M885.395 514.109c-47.236 49.229-110.544 77.299-179.128 79.64l-193.391 119.574-0.876 0 0 182.676-62.905 0 0-183.222-192.507-119.028c-68.618-2.338-132.082-30.384-179.562-79.57-48.965-50.725-75.931-118.595-75.931-191.108 0-72.021 28.492-138.035 80.227-185.883 50.179-46.408 117.875-71.967 190.617-71.967l195.569 0c4.12-0.183 8.256-0.297 12.419-0.297s8.299 0.114 12.419 0.297l197.569 0c72.742 0 140.438 25.559 190.617 71.967 51.735 47.848 80.227 113.862 80.227 185.883C960.759 395.614 933.995 463.46 885.395 514.109zM566.463 147.027c-24.137-10.486-49.391-16.458-75.221-17.807l-22.628 0c-25.831 1.349-51.084 7.32-75.221 17.807-26.641 11.574-50.769 28.073-71.716 49.04-41.677 41.717-65.58 96.702-65.58 150.857 0 27.499 5.91 55.421 17.567 82.991 11.519 27.243 28.552 53.229 49.26 75.149 21.248 22.492 45.49 40.187 72.053 52.595 27.366 12.783 55.948 19.264 84.951 19.264s57.585-6.481 84.951-19.264c26.564-12.408 50.806-30.104 72.053-52.595 20.708-21.92 37.741-47.906 49.26-75.149 11.657-27.57 17.567-55.492 17.567-82.991 0-54.155-23.903-109.14-65.58-150.857C617.232 175.1 593.103 158.601 566.463 147.027zM271.94 129.221c-56.583 0-108.846 19.516-147.162 54.952-38.487 35.595-59.682 84.923-59.682 138.897 0 113.822 84.967 203.433 194.577 206.734-42.16-52.408-67.577-117.656-67.577-182.88 0-84.185 42.329-164.476 108.377-217.703L271.94 129.221zM837.078 184.173c-38.316-35.437-90.579-54.952-147.162-54.952l-30.534 0c66.049 53.227 108.377 133.518 108.377 217.703 0 65.251-25.438 130.526-67.629 182.945 53.337-0.822 102.624-22.07 139.086-60.07 37.108-38.673 57.544-90.782 57.544-146.729C896.759 269.096 875.564 219.768 837.078 184.173zM129.096-0.076l703 0 0-63-703 0 0 63Z"  horiz-adv-x="1024" />

    
    <glyph glyph-name="iconfontyundonghuwai" unicode="&#58951;" d="M449.347-126.996l572.96 192.727c0 0-88.382 765.221-554.382 765.221-370.482 0-467.925-764.812-467.925-764.812l449.333-193.141 0 0L449.347-126.996zM515.855-38.677c3.824 56.344 10.687 132.619 22.768 209.139 13.425 85.03 30.442 153.223 50.576 202.682 10.575 25.976 21.683 45.994 33.016 59.497 7.271 8.664 14.429 14.198 19.638 15.182 3.338 0.631 6.613 0.938 10.012 0.938 25.068 0 56.088-17.732 89.707-51.278 33.171-33.101 67.718-80.293 102.681-140.265 33.361-57.225 60.577-115.128 78.624-156.471L515.855-38.677zM599.848 741.643c37.754-16.728 73.851-41.607 107.287-73.945 59.193-57.249 111.219-138.382 154.634-241.143 27.482-65.05 47.784-130.35 62.249-185.251-66.25 124.794-165.95 269.458-272.151 269.458-7.16 0-14.32-0.654-21.532-2.017-108.26-20.471-152.223-281.571-169.755-462.714-13.715 99.783-29.243 235.809-29.245 340.229-0.004 185.582 21.874 336.288 29.387 382.558 2.391 0.083 4.79 0.136 7.205 0.136C514.564 768.953 558.949 759.765 599.848 741.643zM82.137 175.035c24.009 114.771 52.246 201.358 71.706 253.786 38.48 103.67 83.005 185.418 132.339 242.973 27.207 31.741 55.933 55.998 85.379 72.097 8.029 4.39 16.106 8.178 24.258 11.402-9.605-64.478-26.489-201.628-26.485-369.034 0.003-142.221 26.845-334.726 41.499-429.224L68.628 104.127C71.889 123.171 76.341 147.329 82.137 175.035zM264.667 509.518c-60.246 15.68-108.029-125.437-108.029-125.437l163.536-66.914C320.175 317.167 331.334 492.167 264.667 509.518z"  horiz-adv-x="1025" />

    
    <glyph glyph-name="money" unicode="&#58892;" d="M761.27 680.052l-182.074-272.82h143.474v-60.285l-167.139 0v-83.098h167.14v-61.095h-167.14v-121.022h-85.974v121.022h-173.436l-0.001 61.094h173.436v83.098h-173.436v60.285h147.972l-180.365 272.82h96.952c84.312-135.512 135.375-221.486 153.506-257.792h1.803c6.163 14.938 22.896 45.124 50.477 90.522l103.206 167.273 91.599-0zM825.605 693.996c-80.169 80.082-190.845 129.664-313.038 129.664-122.283 0-233.003-49.582-313.085-129.664-80.125-80.125-129.703-190.849-129.703-313.085 0-122.283 49.578-232.956 129.703-313.038 80.082-80.169 190.802-129.75 313.085-129.75 122.193 0 232.869 49.582 313.038 129.75 80.172 80.082 129.664 190.758 129.664 313.038 0 122.237-49.492 232.96-129.664 313.085M512.567 867.299c134.251 0 255.902-54.437 343.903-142.481 87.997-88.048 142.528-209.655 142.528-343.903 0-134.342-54.531-255.902-142.528-343.993-88.001-87.997-209.652-142.437-343.903-142.437-134.342 0-255.902 54.437-343.946 142.437-88.001 88.091-142.481 209.652-142.481 343.993 0 134.251 54.484 255.859 142.481 343.903 88.044 88.041 209.604 142.481 343.946 142.481z"  horiz-adv-x="1024" />

    
    <glyph glyph-name="xingyepaixing" unicode="&#59535;" d="M767.904036 768.047982c0 70.629514-57.322504 127.952018-127.952018 127.952018L320.071973 896c-70.629514 0-127.952018-57.322504-127.952018-127.952018-70.629514 0-127.952018-57.322504-127.952018-127.952018s57.322504-127.952018 127.952018-127.952018l0-63.976009 3.1988 0C207.794077 337.297513 282.262152 246.131701 384.047982 209.92128l0-209.521429L224.10796 0.39985c-17.657378 0-31.988004-14.330626-31.988004-31.988004s14.330626-31.988004 31.988004-31.988004l511.808072 0c17.657378 0 31.988004 14.330626 31.988004 31.988004s-14.330626 31.988004-31.988004 31.988004L575.976009 0.39985l0 209.521429c101.849806 36.210421 176.317881 127.376234 188.665251 238.310634L767.904036 448.231913l0 63.976009c70.629514 0 127.952018 57.322504 127.952018 127.952018S838.53355 768.047982 767.904036 768.047982zM128.143946 640.095964c0 35.378733 28.661252 63.976009 63.976009 63.976009l0-127.952018C156.805198 576.119955 128.143946 604.781207 128.143946 640.095964zM512 0.335874 448.023991 0.335874l0 195.126827c10.683994-1.215544 21.048107-3.1988 31.988004-3.1988s21.304011 2.047232 31.988004 3.1988L512 0.335874zM480.011996 256.23991c-123.665625 0-223.916031 100.250406-223.916031 223.916031l0 287.89204c0 35.378733 28.597276 63.976009 63.976009 63.976009l319.880045 0c35.378733 0 63.976009-28.597276 63.976009-63.976009l0-287.89204C703.928027 356.554292 603.677621 256.23991 480.011996 256.23991zM767.904036 576.119955l0 127.952018c35.378733 0 63.976009-28.597276 63.976009-63.976009S803.282769 576.119955 767.904036 576.119955z"  horiz-adv-x="1024" />

    
    <glyph glyph-name="gerenzhongxin" unicode="&#58906;" d="M512 839.315424c61.4916 0 121.114327-12.030872 177.211445-35.757661 54.211926-22.92977 102.910848-55.767317 144.744924-97.601393C875.790446 664.122293 908.627992 615.423371 931.557762 561.211445c23.726789-56.097118 35.757661-115.719845 35.757661-177.211445s-12.030872-121.114327-35.757661-177.211445c-22.92977-54.211926-55.767317-102.910848-97.601393-144.744924-41.833217-41.833217-90.532998-74.671623-144.744924-97.601393-56.097118-23.726789-115.719845-35.757661-177.211445-35.757661S390.885673-59.284552 334.788555-35.557762c-54.211926 22.92977-102.910848 55.767317-144.744924 97.601393s-74.671623 90.532998-97.601393 144.744924c-23.726789 56.097118-35.757661 115.719845-35.757661 177.211445s12.030872 121.114327 35.757661 177.211445c22.92977 54.211926 55.767317 102.910848 97.601393 144.744924 41.833217 41.833217 90.532998 74.671623 144.744924 97.601393C390.885673 827.284552 450.5084 839.315424 512 839.315424M512 896c-282.769291 0-512-229.22985-512-512s229.22985-512 512-512S1024 101.230709 1024 384 794.77015 896 512 896L512 896zM262.782825 70.098852l498.435209 0C761.218034 71.067643 262.782825 70.098852 262.782825 70.098852L262.782825 70.098852zM820.273915 114.929481c-15.778066 108.615378-87.995075 199.021265-186.086017 240.731666C692.043097 394.727127 730.065565 460.750916 730.065565 535.622653c0 119.982353-97.628876 217.245356-218.065565 217.245356S293.935294 655.605006 293.935294 535.622653c0-74.871737 38.024186-140.896385 95.877667-179.95807C291.72116 313.955041 219.50501 223.545718 203.726944 114.929481c-2.075858-4.155151-3.247339-8.837641-3.247339-13.794106 0-17.140213 13.946123-31.036523 31.152469-31.036523 17.204628 0 31.150751 13.89631 31.150751 31.036523l0-31.036523c0 137.122567 111.580153 248.279303 249.217175 248.279303S761.218034 207.221419 761.218034 70.098852l0 31.036523c0-17.140213 13.946123-31.036523 31.152469-31.036523 17.204628 0 31.150751 13.89631 31.150751 31.036523C823.521254 106.091841 822.349773 110.77433 820.273915 114.929481L820.273915 114.929481zM512 380.448625c-86.021421 0-155.758051 69.477255-155.758051 155.174028 0 85.701067 69.736629 155.178322 155.758051 155.178322C598.026574 690.800975 667.758909 621.32372 667.758909 535.622653S598.026574 380.448625 512 380.448625L512 380.448625zM512 380.448625"  horiz-adv-x="1024" />

    
    <glyph glyph-name="xiayiye" unicode="&#58934;" d="M448 601.6c-12.8 12.8-32 12.8-44.8 0s-12.8-32 0-44.8L576 384l-172.8-172.8c-12.8-12.8-12.8-32 0-44.8s32-12.8 44.8 0l0 0 192 198.4c12.8 12.8 12.8 32 0 44.8 0 0 0 0 0 0L448 601.6zM486.4 819.2C249.6 819.2 51.2 627.2 51.2 384s198.4-435.2 435.2-435.2 435.2 198.4 435.2 435.2l0 0C928 627.2 729.6 819.2 486.4 819.2zM486.4 12.8c-204.8 0-371.2 166.4-371.2 371.2s166.4 371.2 371.2 371.2 371.2-166.4 371.2-371.2C864 179.2 697.6 12.8 486.4 12.8z"  horiz-adv-x="1024" />

    
    <glyph glyph-name="jiantou1-copy-copy-copy" unicode="&#59303;" d="M945.557 422.032h-733.558l187.319 180.328c4.795 4.796 4.795 12.57 0 17.367l-37.627 37.627c-4.796 4.795-12.57 4.795-17.367 0l-235.807-227.011c-0.272-0.229-0.541-0.465-0.797-0.721l-1.259-1.259-36.367-35.009c-2.567-2.568-3.746-5.99-3.564-9.352-0.188-3.369 0.991-6.8 3.562-9.372l37.627-36.267c0.243-0.241 0.496-0.463 0.752-0.68l235.852-227.050c4.796-4.797 12.57-4.797 17.367 0l37.627 37.627c4.795 4.795 4.795 12.569 0 17.367l-185.562 178.637h731.8c6.783 0 12.28 5.498 12.28 12.28v53.213c0 6.781-5.497 12.28-12.28 12.28z"  horiz-adv-x="1024" />

    
    <glyph glyph-name="xiazaisvg" unicode="&#58954;" d="M995.555556 384C995.555556 651.060359 779.060361 867.555556 512 867.555556 244.939641 867.555556 28.444444 651.060359 28.444444 384 28.444444 116.939639 244.939641-99.555556 512-99.555556 779.060361-99.555556 995.555556 116.939639 995.555556 384ZM536.6006 300.104676 536.6006 611.021396C536.6006 621.78491 528.340053 630.006006 518.15015 630.006006 508.258258 630.006006 499.699699 621.506307 499.699699 611.021396L499.699699 298.636419 389.5016 408.834521C382.237828 416.098293 370.546805 416.107137 363.341456 408.901787 356.085873 401.646204 356.166223 389.984143 363.408722 382.741643L504.302319 241.848047C507.986162 238.164207 512.697557 236.37029 517.410716 236.377515 517.677417 236.37822 517.943966 236.384546 518.210175 236.396498 524.270348 236.417564 529.824041 239.627361 533.20714 244.525466 552.861335 264.179678 671.423323 382.741643 671.423323 382.741643 678.687095 390.005415 678.695942 401.696438 671.490594 408.901787 664.235008 416.157371 652.572945 416.07702 645.330449 408.834521L536.6006 300.104676ZM85.333333 384C85.333333 619.641493 276.358507 810.666667 512 810.666667 747.641492 810.666667 938.666667 619.641493 938.666667 384 938.666667 148.358508 747.641492-42.666667 512-42.666667 276.358507-42.666667 85.333333 148.358508 85.333333 384ZM364.396397 168.744744C364.396397 178.934647 372.913007 187.195193 382.862929 187.195193L641.137072 187.195193C651.335856 187.195193 659.603604 178.636635 659.603604 168.744744 659.603604 158.55484 651.086996 150.294295 641.137072 150.294295L382.862929 150.294295C372.664145 150.294295 364.396397 158.852853 364.396397 168.744744Z"  horiz-adv-x="1024" />

    
    <glyph glyph-name="atm" unicode="&#59069;" d="M511.708193-89.459932c-243.434879 0-442.60822 191.797271-442.60822 430.314429 0 114.35468 45.742077 219.079719 122.933815 297.499096 0.370646 0.37679 0.039932 2.822852-0.028669 4.635129-0.083959 2.198282 0.041979 3.884621 0.041979 5.233078L192.047099 820.346137c0 12.294815 7.377094 22.130257 19.671909 24.58963 0 0 0 0 2.459373 0 2.459373 0 2.459373 0 2.459373 0s0 0 2.459373 0c4.917721 0 9.835442 0 14.753164-2.459373l142.618011-88.522054 2.459373-2.459373c41.802166 12.294815 86.062681 19.671909 132.782568 19.671909 243.434879 0 442.60822-191.797271 442.60822-430.314429S755.143072-89.459932 511.708193-89.459932zM511.708193 721.988641c-44.260515 0-88.522054-7.377094-127.864847-22.130257l0 0c-10.377078-5.41021-24.58963-4.917721-34.425072 2.459373L241.225335 766.25018l0-118.029405c0-9.702337 3.040939-21.025485-0.604092-29.732606-0.05017-0.119795-0.313309-0.492489-0.510919-0.699314-0.051194-0.053242-0.114675-0.108532-0.184299-0.176108-74.224519-70.854912-121.646792-167.936647-121.646792-276.759275 0-211.468156 177.043083-381.135169 393.429984-381.135169S905.138177 129.385317 905.138177 340.853472C905.138177 552.322652 728.095093 721.988641 511.708193 721.988641zM536.298847 349.699842c-14.137809 0-25.597133 11.459325-25.597133 25.597133l0 76.737133c0 14.136785 11.459325 25.597133 25.597133 25.597133s25.597133-11.460348 25.597133-25.597133l0-76.737133C561.89598 361.159166 550.435631 349.699842 536.298847 349.699842zM723.669861 349.699842c-14.137809 0-25.597133 11.459325-25.597133 25.597133l0 76.737133c0 14.136785 11.459325 25.597133 25.597133 25.597133s25.597133-11.460348 25.597133-25.597133l0-76.737133C749.266994 361.159166 737.806646 349.699842 723.669861 349.699842z"  horiz-adv-x="1025" />

    
    <glyph glyph-name="shuju" unicode="&#58907;" d="M736.232934 777.807798h-448.922521L62.848129 389.029325 287.309389 0.250852h448.922521l224.46126 388.778473L736.232934 777.807798zM714.634073 37.66055H308.90825l-202.862399 351.368775L308.909274 740.397076h405.725823l202.862399-351.368775L714.634073 37.66055zM335.341898 553.231862l-58.928696-102.067032 58.928696-102.067033h117.856368l58.928696 102.067033-58.928696 102.067032zM453.198266 349.097797l-58.927672-102.068056 58.927672-102.067033h117.857392l58.928696 102.067033-58.928696 102.068056zM688.91305 553.231862H571.055658l-58.928696-102.067032 58.928696-102.067033h117.857392l58.928696 102.067033z"  horiz-adv-x="1024" />

    
    <glyph glyph-name="yunweiguanli" unicode="&#58910;" d="M736.232934 777.807798h-448.922521L62.848129 389.029325 287.309389 0.250852h448.922521l224.46126 388.778473L736.232934 777.807798zM714.634073 37.66055H308.90825l-202.862399 351.368775L308.909274 740.397076h405.725823l202.862399-351.368775L714.634073 37.66055zM670.152399 432.858784l100.871134 50.435567-260.953557 130.475755-260.952533-130.475755 100.871134-50.435567-100.871134-50.435567 89.913514-44.956757-89.913514-44.956757 260.952533-130.475755 260.953557 130.475755-89.913513 44.956757 89.913513 44.956757-100.871134 50.435567z m-160.082423-80.041212l28.699506 14.349753 59.401731-29.700865-88.100213-44.050619-88.100213 44.050619 59.400707 29.700865 28.698482-14.349753z m-178.013726 29.605645l59.401731 29.700865 48.44411-24.222055-59.400707-29.700866-48.445134 24.222056z m356.027453-89.913514L510.069976 203.502328l-178.013726 89.007375 48.44411 24.222055 129.569616-64.784296 129.569616 64.784296 48.444111-24.222055zM580.238885 387.902027l48.444111 24.222055 59.401731-29.700865-48.444111-24.222056-59.401731 29.700866z"  horiz-adv-x="1024" />

    
    <glyph glyph-name="icon-test" unicode="&#58913;" d="M270.661014 104.060537a36.678644 36.678644 0 0 0-25.982114 10.804038c-10.447726 10.434415-13.614603 26.050714-8.048763 39.761563l3.016367 7.527605c76.137137 190.828675 79.743261 194.434799 82.923448 197.616011L751.257427 788.42856c13.628938 13.792759 38.047579 13.944294 51.978563 0.013311L918.324796 673.39402c6.978802-7.102692 10.763083-16.302302 10.763082-25.982114 0-9.776057-3.811925-18.990001-10.735437-25.954469-0.013311-0.027645-0.040955-0.040955-0.068601-0.068601-1.988385-1.974051-147.913546-147.900235-268.954197-268.926552-85.432992-85.432992-158.457517-158.457517-159.759899-159.746588-2.947766-3.044011-6.4986-6.691091-200.029309-83.938119l-5.086662-2.029341a37.048267 37.048267 0 0 0-13.792759-2.687699z m506.565217 667.078695c-1.316717 0-3.907146-0.328667-6.046043-2.509543L342.424112 339.916617c-0.630713-1.741629-12.599933-27.517942-76.699249-188.168621l-3.071656-7.691426a8.582207 8.582207 0 0 1 1.89214-9.336811c2.495209-2.481898 6.210888-3.290767 9.405411-1.919785l5.168573 2.056986c167.177948 66.717392 189.622538 77.549075 192.515014 79.276369-0.356312 0 72.558657 72.91497 157.840114 158.183116 120.217448 120.204137 264.977427 264.964116 268.967507 268.939862 1.632073 1.645384 2.563809 3.893836 2.563809 6.156623 0 2.248452-0.959381 4.524549-2.632409 6.225223L783.381829 768.588734a8.637497 8.637497 0 0 1-6.155598 2.550498zM426.430832 241.773113c-3.59179 0-7.197914 1.370982-9.940903 4.112948-5.470619 5.48393-5.470619 14.382517 0.013311 19.867471l383.550514 383.083622c5.48393 5.457309 14.382517 5.470619 19.867471-0.01331 5.470619-5.48393 5.470619-14.382517-0.013311-19.867471L436.358424 245.87275a14.039516 14.039516 0 0 0-9.927592-4.099637zM479.670821 188.62937a13.995489 13.995489 0 0 0-9.926568 4.112947l-147.173277 147.173276c-5.48393 5.48393-5.48393 14.369207 0 19.853137s14.369207 5.48393 19.853136 0l147.173277-147.173277c5.48393-5.48393 5.48393-14.369207 0-19.853136a13.993441 13.993441 0 0 0-9.926568-4.112947zM313.054986 119.197658a13.995489 13.995489 0 0 0-9.926568 4.112947l-49.797687 49.812021c-5.48393 5.48393-5.48393 14.369207 0 19.853137s14.369207 5.48393 19.853136 0l49.797687-49.812021c5.48393-5.48393 5.48393-14.369207 0-19.853137a13.993441 13.993441 0 0 0-9.926568-4.112947zM686.637977-30.388916H161.275249c-37.883757 0-65.387365 27.504631-65.387364 65.387364V556.809317c0 21.320364 8.952853 57.078535 68.952533 57.078536h304.534212c7.760027 0 14.039516-6.279489 14.039516-14.039516s-6.279489-14.039516-14.039516-14.039516h-304.534212c-35.923017 0-40.872478-13.944294-40.872478-28.99848v-521.810869c0-22.663702 14.643608-37.30731 37.307309-37.30731h525.362728c12.874334 0 25.433311 2.879166 25.433311 37.30731v308.097333c0 7.760027 6.279489 14.039516 14.040539 14.039516 7.760027 0 14.039516-6.279489 14.039516-14.039516v-308.098357c0-54.048859-29.094725-65.387365-53.513366-65.387364z"  horiz-adv-x="1024" />

    
    <glyph glyph-name="liebiao" unicode="&#58922;" d="M448 352H96c-19.2 0-32-12.8-32-32v-352c0-19.2 12.8-32 32-32h352c19.2 0 32 12.8 32 32V320c0 19.2-12.8 32-32 32z m0 480H96c-19.2 0-32-12.8-32-32v-352c0-19.2 12.8-32 32-32h352c19.2 0 32 12.8 32 32V800c0 19.2-12.8 32-32 32z m480 0H576c-19.2 0-32-12.8-32-32v-352c0-19.2 12.8-32 32-32h352c19.2 0 32 12.8 32 32V800c0 19.2-12.8 32-32 32z m0-480H576c-19.2 0-32-12.8-32-32v-352c0-19.2 12.8-32 32-32h352c19.2 0 32 12.8 32 32V320c0 19.2-12.8 32-32 32z"  horiz-adv-x="1024" />

    
    <glyph glyph-name="iconfont-baitang-" unicode="&#59040;" d="M85.333333 612.679111v-457.742222l420.352-189.710222V420.565333L85.333333 612.679111z m839.992889 17.237333L518.869333 811.392 106.993778 629.333333l411.719111-188.16 406.613333 188.743111z m13.354667-20.451555L531.84 420.608v-455.438222l406.840889 185.742222V609.464889z"  horiz-adv-x="1024" />

    
    <glyph glyph-name="changjingdakai" unicode="&#58920;" d="M657.066667 403.2c17.066667-17.066667 42.666667-17.066667 59.733333 0l128 128c17.066667 17.066667 17.066667 42.666667 0 59.733333l-128 128c-17.066667 17.066667-42.666667 17.066667-59.733333 0l-128-128c-17.066667-17.066667-17.066667-42.666667 0-59.733333l128-128zM443.733333 721.066667h-234.666666c-23.466667 0-42.666667-19.2-42.666667-42.666667v-234.666667c0-23.466667 19.2-42.666667 42.666667-42.666666h234.666666c23.466667 0 42.666667 19.2 42.666667 42.666666v234.666667c0 23.466667-19.2 42.666667-42.666667 42.666667z m0-277.333334h-234.666666v234.666667h234.666666v-234.666667zM443.733333 358.4h-234.666666c-23.466667 0-42.666667-19.2-42.666667-42.666667v-234.666666c0-23.466667 19.2-42.666667 42.666667-42.666667h234.666666c23.466667 0 42.666667 19.2 42.666667 42.666667v234.666666c0 23.466667-19.2 42.666667-42.666667 42.666667z m0-277.333333h-234.666666v234.666666h234.666666v-234.666666zM806.4 358.4h-234.666667c-23.466667 0-42.666667-19.2-42.666666-42.666667v-234.666666c0-23.466667 19.2-42.666667 42.666666-42.666667h234.666667c23.466667 0 42.666667 19.2 42.666667 42.666667v234.666666c0 23.466667-19.2 42.666667-42.666667 42.666667z m0-277.333333h-234.666667v234.666666h234.666667v-234.666666z"  horiz-adv-x="1024" />

    
    <glyph glyph-name="fanhui" unicode="&#58888;" d="M532.526499-8.817574L139.506311 384.202615 532.526499 777.222803c12.258185 12.258185 12.432147 32.892131-0.187265 45.51052-12.707416 12.707416-32.995485 12.703323-45.511543 0.187265L75.166957 411.260877c-7.120165-7.120165-10.163477-17.065677-8.990768-26.624381-1.500167-9.755178 1.5104-20.010753 8.990768-27.491121l411.660734-411.660734c12.258185-12.258185 32.892131-12.432147 45.511543 0.187265 12.707416 12.707416 12.7023 32.995485 0.187265 45.51052z"  horiz-adv-x="1024" />

    
    <glyph glyph-name="gengduo1" unicode="&#58889;" d="M492.675886-8.817574L885.696074 384.202615 492.675886 777.222803c-12.258185 12.258185-12.432147 32.892131 0.187265 45.51052 12.707416 12.707416 32.995485 12.703323 45.511543 0.187265l411.660734-411.660734c7.120165-7.120165 10.163477-17.065677 8.990768-26.624381 1.500167-9.755178-1.5104-20.010753-8.990768-27.491121L538.374694-54.515359c-12.258185-12.258185-32.892131-12.432147-45.511543 0.187265-12.707416 12.707416-12.703323 32.995485-0.187265 45.51052z"  horiz-adv-x="1024" />

    
    <glyph glyph-name="caigou-xianxing" unicode="&#59527;" d="M821.6 640l-78.4-256H342.4L272 640h549.6M216 832H64v-64h104.8l18.4-64 100-361.6c1.6-4.8 4-8.8 7.2-12l-52-83.2c-6.4-5.6-10.4-14.4-10.4-23.2 0-17.6 14.4-32 32-32h568v64H323.2l40 64H768c13.6 0 24.8 8.8 29.6 22.4l97.6 318.4c6.4 20.8-8 43.2-29.6 43.2H252.8l-18.4 64L216 832zM320 64m-64 0a64 64 0 1 1 128 0 64 64 0 1 1-128 0ZM768 64m-64 0a64 64 0 1 1 128 0 64 64 0 1 1-128 0Z"  horiz-adv-x="1024" />

    
    <glyph glyph-name="book" unicode="&#58927;" d="M973.193143 622.848c14.299429-20.553143 18.285714-47.433143 10.276571-73.728l-157.147428-517.705143C812.022857-17.152 761.737143-54.857143 712.621714-54.857143H185.188571C126.893714-54.857143 64.612571-8.557714 43.474286 50.870857c-9.142857 25.709714-9.142857 50.870857-1.133715 72.557714 1.133714 11.446857 3.437714 22.857143 3.986286 36.571429 0.585143 9.142857-4.571429 16.566857-3.437714 23.442286 2.304 13.714286 14.299429 23.442286 23.442286 38.838857 17.152 28.562286 36.571429 74.861714 42.861714 104.557714 2.852571 10.861714-2.852571 23.442286 0 33.133714 2.852571 10.861714 13.714286 18.870857 19.419428 29.147429 15.433143 26.294857 35.437714 77.129143 38.290286 104.009143 1.133714 11.995429-4.571429 25.161143-1.133714 34.304 3.986286 13.129143 16.566857 18.870857 25.161143 30.281143 13.714286 18.870857 36.571429 73.142857 40.009143 103.424 1.133714 9.728-4.571429 19.419429-2.852572 29.696 2.304 10.861714 16.018286 22.272 25.161143 35.437714 23.990857 35.437714 28.562286 113.700571 101.156571 93.147429l-0.585142-1.718858C363.547429 820.004571 373.238857 822.857143 382.966857 822.857143h434.870857c26.843429 0 50.870857-11.995429 65.133715-32 14.848-20.553143 18.285714-47.433143 10.276571-74.276572l-156.562286-517.705142C709.842286 110.884571 694.957714 91.428571 622.4 91.428571H125.833143c-7.424 0-16.566857-1.718857-21.723429-8.557714-4.571429-6.838857-5.156571-11.995429-0.585143-24.576C114.971429 25.161143 154.395429 18.285714 185.810286 18.285714h527.433143c21.138286 0 45.714286 11.995429 52.004571 32.585143l171.446857 564.004572c3.437714 10.861714 3.437714 22.272 2.852572 32.585142 13.129143-5.156571 25.161143-13.129143 33.718857-24.576zM365.193143 621.714286c-3.437714-10.276571 2.304-18.285714 12.580571-18.285715h347.428572c9.728 0 20.553143 8.009143 23.990857 18.285715l11.995428 36.571428c3.437714 10.276571-2.304 18.285714-12.580571 18.285715h-347.428571c-9.728 0-20.553143-8.009143-23.990858-18.285715z m-47.396572-146.285715c-3.437714-10.276571 2.304-18.285714 12.580572-18.285714h347.428571c9.728 0 20.553143 8.009143 23.990857 18.285714l11.995429 36.571429c3.437714 10.276571-2.304 18.285714-12.580571 18.285714h-347.428572c-9.728 0-20.553143-8.009143-23.990857-18.285714z"  horiz-adv-x="1024" />

    
    <glyph glyph-name="info" unicode="&#59071;" d="M694.857143 128v-73.142857c0-20.004571-16.566857-36.571429-36.571429-36.571429H365.714286c-20.004571 0-36.571429 16.566857-36.571429 36.571429v73.142857c0 20.004571 16.566857 36.571429 36.571429 36.571429h36.571428v219.428571H365.714286c-20.004571 0-36.571429 16.566857-36.571429 36.571429v73.142857c0 20.004571 16.566857 36.571429 36.571429 36.571428h219.428571c20.004571 0 36.571429-16.566857 36.571429-36.571428v-329.142857h36.571428c20.004571 0 36.571429-16.566857 36.571429-36.571429zM621.714286 786.285714v-109.714285c0-20.004571-16.566857-36.571429-36.571429-36.571429H438.857143c-20.004571 0-36.571429 16.566857-36.571429 36.571429V786.285714c0 20.004571 16.566857 36.571429 36.571429 36.571429h146.285714c20.004571 0 36.571429-16.566857 36.571429-36.571429z"  horiz-adv-x="1024" />

    
    <glyph glyph-name="huaxuegongye" unicode="&#59142;" d="M511.413 384.96m-444.145 0a444.145 444.145 0 1 1 888.29 0 444.145 444.145 0 1 1-888.29 0ZM206.064 350.617c-0.049-51.903 13.058-104.511 40.877-152.694 27.818-48.183 66.824-85.838 111.798-111.747l152.675 264.441h-305.35zM664.107 86.144c97.882 56.512 152.555 159.032 152.656 264.473h-305.35l152.694-264.473zM664.088 615.058c-91.365 52.633-207.487 56.544-305.368 0.032l152.694-264.473 152.674 264.441zM206.064 378.376c-0.049-51.903 13.058-104.511 40.877-152.694s66.824-85.838 111.798-111.747l152.675 264.441h-305.35zM664.107 113.903c97.882 56.512 152.555 159.032 152.656 264.473h-305.35l152.694-264.473zM664.088 642.817c-91.365 52.633-207.487 56.544-305.368 0.032l152.694-264.473 152.674 264.441z"  horiz-adv-x="1024" />

    
    <glyph glyph-name="gengduo" unicode="&#58903;" d="M257.22 81.47a36.46 36.46 0 0 0-25.78 62.24L471.73 384 231.44 624.29A36.46 36.46 0 0 0 283 675.85l246.77-246.73a63.83 63.83 0 0 0 0-90.2L283 92.15a36.35 36.35 0 0 0-25.78-10.68zM512 81.47a36.46 36.46 0 0 0-25.78 62.24L726.47 384 486.18 624.29a36.46 36.46 0 0 0 51.56 51.56l246.77-246.73a63.66 63.66 0 0 0 0-90.2L537.75 92.15A36.35 36.35 0 0 0 512 81.47z"  horiz-adv-x="1024" />

    
    <glyph glyph-name="wangyuanjing" unicode="&#58899;" d="M997.901832 197.01984200000004c1.148991-4.852329 1.815545-9.947042 1.803892-14.927555-0.174796-78.031145-0.519726-156.06695-0.783085-234.100426-0.107208-30.929522-10.366552-41.545449-40.815968-41.566425-84.640754-0.055935-169.281508 0.051273-253.919931-0.051273-14.750429-0.018645-28.3239 2.454132-35.057032 17.339736-2.747789 6.0759-3.93873 13.359055-3.955044 20.096848-0.242383 111.044232-0.179457 222.083802-0.18878 333.125703v15.531183c-11.431641 0-21.078034-0.139837-30.717436 0.032629-17.740601 0.309971-30.596245 12.524697-32.0319 30.316571l-0.202763 351.751936c0.002331 15.780559 0.046612 15.799203 16.153456 15.799203 81.53172 0.002331 163.068102 0.004661 244.599822-0.011653 18.104176-0.002331 18.183417-0.020975 22.401821-17.654368l112.712948-475.682109zM424.679045 328.96265100000005c-0.023306-24.704463-12.189089-36.865585-37.019405-37.117291-30.395812-0.30531-27.074693 4.038947-27.095669-27.468566-0.07458-106.390004-0.013984-212.782338-0.03729-319.174673-0.006992-29.27945-10.611266-40.014239-39.746218-40.030553-84.647746-0.048943-169.295491-0.03729-253.940906 0.011653-27.736586 0.016314-39.417602 11.872126-39.468876 39.848766-0.146828 78.821221-1.435656 157.67041 0.286665 236.452011 0.531379 24.331566 8.837672 48.588552 14.370539 72.698709l100.561149 426.03546c1.582484 7.078062 5.348749 9.471598 12.207734 9.464606 86.589144-0.100216 173.178287-0.165473 259.7651 0.053604 9.604443 0.023306 10.28265-4.873305 10.254683-12.478084l-0.137506-348.295642zM464.98461 675.191042c-0.097886 10.904923 2.757111 15.09769 14.298291 14.67818 22.870273-0.829697 45.794151-0.564008 68.685399-0.100216 9.688345 0.195771 13.787887-2.428495 13.752928-13.081713-0.337938-105.175756-0.337938-210.356174 0-315.53426 0.030298-9.662708-3.582147-12.00264-12.205403-11.895432-24.445766 0.309971-48.905515 0.438155-73.34895-0.044282-8.930897-0.174796-11.135653 3.24887-11.089041 11.604106l-0.093224 314.373617zM613.283638 731.076733c-8.737456-0.144498-11.461939 2.936568-11.387359 11.443293 0.333277 36.879568 0.314632 73.766129 0.055934 110.648028-0.055935 7.87513 2.451801 11.203241 10.655548 11.172943 54.741361-0.198102 109.485054-0.156151 164.226415-0.03962 7.788898 0.016314 11.019123-2.808385 10.951535-11.028445-0.30531-36.879568-0.30764-73.766129 0.051274-110.645698 0.083902-8.646562-2.929576-11.62042-11.501559-11.50622l-163.051788-0.044281zM230.739686 731.076733c-8.737456-0.144498-11.461939 2.936568-11.387359 11.443293 0.333277 36.879568 0.314632 73.766129 0.055935 110.648028-0.055935 7.87513 2.451801 11.203241 10.655548 11.172943 54.741361-0.198102 109.485054-0.156151 164.226415-0.03962 7.788898 0.016314 11.019123-2.808385 10.951535-11.028445-0.30531-36.879568-0.30764-73.766129 0.051273-110.645698 0.083902-8.646562-2.929576-11.62042-11.501559-11.50622l-163.051788-0.044281z"  horiz-adv-x="1024" />

    
    <glyph glyph-name="chakangengduo" unicode="&#58900;" d="M1024 384a512 512 0 1 1-512-512 512 512 0 0 1 512 512zM48.768 384A463.232 463.232 0 1 0 512-79.36 463.146667 463.146667 0 0 0 48.768 384z m731.434667 72.96a24.149333 24.149333 0 0 1-34.133334 34.133333L512 257.28 277.930667 491.093333a23.466667 23.466667 0 0 1-34.133334 0 25.6 25.6 0 0 1-7.296-17.066666 27.264 27.264 0 0 1 7.296-17.066667l251.136-250.88a23.466667 23.466667 0 0 1 34.133334 0z"  horiz-adv-x="1024" />

    
    <glyph glyph-name="liebiao1" unicode="&#59012;" d="M341.333333 725.333333h568.888889v-113.777777H341.333333zM113.777778 725.333333h113.777778v-113.777777H113.777778zM113.777778 440.888889h113.777778v-113.777778H113.777778zM113.777778 156.444444h113.777778v-113.777777H113.777778zM341.333333 156.444444h568.888889v-113.777777H341.333333zM341.333333 440.888889h568.888889v-113.777778H341.333333z"  horiz-adv-x="1024" />

    
    <glyph glyph-name="yonghu-tianchong" unicode="&#58992;" d="M593.066667 396.8C695.466667 430.933333 768 526.933333 768 640c0 140.8-115.2 256-256 256S256 780.8 256 640c0-113.066667 72.533333-209.066667 174.933333-243.2C249.6 360.53333299999997 85.333333 206.93333299999995 85.333333 21.33333300000004c0-83.2 66.133333-149.333333 149.333334-149.333333h554.666666c83.2 0 149.333333 66.133333 149.333334 149.333333 0 185.6-164.266667 339.2-345.6 375.466667z"  horiz-adv-x="1024" />

    
    <glyph glyph-name="gou" unicode="&#58955;" d="M747.072 12.992a48 48 0 0 1 12.672-22.208 47.744 47.744 0 0 1 67.648-0.192l284.544 284.48a47.872 47.872 0 0 1-0.192 67.712 47.744 47.744 0 0 1-67.712 0.192l-247.872-247.872a51.008 51.008 0 0 1-1.216 1.28l-99.328 99.328a49.664 49.664 0 0 1-70.4 0 49.6 49.6 0 0 1 0-70.4l99.328-99.328a49.536 49.536 0 0 1 22.528-12.992zM1219.008 892.288v-1015.68H-0.064L1219.008 892.288z"  horiz-adv-x="1219" />

    
    <glyph glyph-name="kefu" unicode="&#58917;" d="M55.351351 342.597189v-110.924108a83.027027 83.027027 0 0 1 166.054054 0v110.924108a83.027027 83.027027 0 0 1-166.054054 0z m763.101406-211.552865A137.852541 137.852541 0 0 0 774.918919 231.673081v110.924108A138.378378 138.378378 0 0 0 912.328649 480.864865C898.131027 681.928649 730.499459 840.648649 525.837838 840.648649 321.148541 840.648649 153.544649 681.928649 139.347027 480.864865A138.461405 138.461405 0 0 0 276.756757 342.597189v-110.924108a138.378378 138.378378 0 0 0-276.756757 0v110.924108a138.378378 138.378378 0 0 0 83.303784 126.865297C91.883243 706.476973 286.72 896 525.837838 896s433.954595-189.523027 442.534054-426.537514A138.461405 138.461405 0 0 0 1051.675676 342.597189v-110.924108a138.378378 138.378378 0 0 0-184.790487-130.269405 470.763243 470.763243 0 0 0-188.858811-121.21946A96.809514 96.809514 0 0 0 580.912432-114.162162h-82.528864c-53.690811 0-97.113946 43.174054-97.113946 96.864865 0 53.607784 43.284757 96.864865 97.141621 96.864865h82.473514c34.954378 0 65.536-18.265946 82.639567-45.803244a415.273514 415.273514 0 0 1 154.900757 97.28zM830.27027 342.597189v-110.924108a83.027027 83.027027 0 0 1 166.054054 0v110.924108a83.027027 83.027027 0 0 1-166.054054 0zM498.438919-58.810811h82.473513c23.302919 0 41.79027 18.487351 41.790271 41.513514 0 23.053838-18.570378 41.513514-41.790271 41.513513h-82.473513c-23.302919 0-41.79027-18.487351-41.79027-41.513513 0-23.053838 18.570378-41.513514 41.79027-41.513514z"  horiz-adv-x="1051" />

    
    <glyph glyph-name="jiantouyou" unicode="&#58926;" d="M312.888889-99.555556c-17.066667 0-28.444444 5.688889-39.822222 17.066667-22.755556 22.755556-17.066667 56.888889 5.688889 79.644445l364.088888 329.955555c11.377778 11.377778 17.066667 22.755556 17.066667 34.133333 0 11.377778-5.688889 22.755556-17.066667 34.133334L273.066667 708.266667c-22.755556 22.755556-28.444444 56.888889-5.688889 79.644444 22.755556 22.755556 56.888889 28.444444 79.644444 5.688889l364.088889-312.888889c34.133333-28.444444 56.888889-73.955556 56.888889-119.466667s-17.066667-85.333333-51.2-119.466666l-364.088889-329.955556c-11.377778-5.688889-28.444444-11.377778-39.822222-11.377778z"  horiz-adv-x="1024" />

    
    <glyph glyph-name="jiantouxia" unicode="&#58925;" d="M517.688889 99.555556c-45.511111 0-85.333333 17.066667-119.466667 51.2L73.955556 514.844444c-22.755556 22.755556-17.066667 56.888889 5.688888 79.644445 22.755556 22.755556 56.888889 17.066667 79.644445-5.688889l329.955555-364.088889c5.688889-5.688889 17.066667-11.377778 28.444445-11.377778s22.755556 5.688889 34.133333 17.066667l312.888889 364.088889c22.755556 22.755556 56.888889 28.444444 79.644445 5.688889 22.755556-22.755556 28.444444-56.888889 5.688888-79.644445L637.155556 156.444444c-28.444444-39.822222-68.266667-56.888889-119.466667-56.888888 5.688889 0 0 0 0 0z"  horiz-adv-x="1024" />

    
    <glyph glyph-name="shigongzhong" unicode="&#58923;" d="M904 720H120c-30.9 0-56-25.1-56-56v-588c0-15.5 12.5-28 28-28s28 12.5 28 28v84h784v-84c0-15.5 12.5-28 28-28s28 12.5 28 28V664c0 30.9-25.1 56-56 56z m-210-56v-112H540V664h154z m-210 0v-112H330V664h154z m-364 0h154v-112H120V664z m784-448H120V496h784v-280zM750 552V664h154v-112H750zM264.7 424.5l112-168c5.4-8.1 14.3-12.5 23.3-12.5 5.4 0 10.8 1.5 15.5 4.7 12.9 8.6 16.4 26 7.8 38.8l-112 168c-8.6 12.9-26.1 16.3-38.8 7.8-12.9-8.6-16.4-26-7.8-38.8z m280-168c5.4-8.1 14.3-12.5 23.3-12.5 5.4 0 10.8 1.5 15.5 4.7 12.9 8.6 16.4 26 7.8 38.8l-112 168c-8.6 12.9-26.1 16.3-38.8 7.8-12.9-8.6-16.4-26-7.8-38.8l112-168z m168 0c5.4-8.1 14.3-12.5 23.3-12.5 5.4 0 10.8 1.5 15.5 4.7 12.9 8.6 16.4 26 7.8 38.8l-112 168c-8.7 12.9-26.1 16.3-38.8 7.8-12.9-8.6-16.4-26-7.8-38.8l112-168z"  horiz-adv-x="1024" />

    
    <glyph glyph-name="daifukuan" unicode="&#58943;" d="M146.645333 299.989333a21.717333 21.717333 0 0 0-8.789333 7.061334L68.224 402.133333a21.824 21.824 0 1 0 35.2 25.792l27.690667-37.802666C139.2 611.968 321.6 789.333333 545.408 789.333333 774.4 789.333333 960 603.733333 960 374.762667s-185.6-414.592-414.570667-414.592c-147.882667 0-282.24 78.08-356.48 202.837333a21.824 21.824 0 1 0 37.482667 22.314667 370.688 370.688 0 0 1 318.997333-181.504c204.864 0 370.922667 166.08 370.922667 370.944 0 204.864-166.058667 370.922667-370.922667 370.922666-204.864 0-370.944-166.058667-370.944-370.922666 0-17.621333 1.216-35.072 3.626667-52.266667a21.824 21.824 0 0 0-31.466667-22.506667z m420.586667 74.773334v-65.472h152.746667a21.824 21.824 0 0 0 0-43.626667h-152.746667v-130.922667a21.824 21.824 0 1 0-43.626667 0v130.922667h-152.746666a21.824 21.824 0 0 0 0 43.626667h152.746666v65.472h-152.746666a21.824 21.824 0 0 0 0 43.626666h140.202666l-151.936 124.992a21.824 21.824 0 1 0 27.712 33.706667l159.637334-131.306667L706.133333 577.066667a21.824 21.824 0 1 0 27.733334-33.706667l-151.957334-124.970667h138.090667a21.824 21.824 0 0 0 0-43.626666h-152.746667z"  horiz-adv-x="1024" />

    
    <glyph glyph-name="dingdan" unicode="&#58949;" d="M704 704a106.666667 106.666667 0 0 0 106.666667-106.666667v-469.333333a106.666667 106.666667 0 0 0-106.666667-106.666667H320a106.666667 106.666667 0 0 0-106.666667 106.666667V597.333333a106.666667 106.666667 0 0 0 106.666667 106.666667 21.333333 21.333333 0 1 1 0 42.666667 149.333333 149.333333 0 0 1-149.333333-149.333334v-469.333333a149.333333 149.333333 0 0 1 149.333333-149.333333h384a149.333333 149.333333 0 0 1 149.333333 149.333333V597.333333a149.333333 149.333333 0 0 1-149.333333 149.333334 21.333333 21.333333 0 0 1 0-42.666667zM320 341.333333a21.333333 21.333333 0 0 0 0 42.666667h384a21.333333 21.333333 0 0 0 0-42.666667H320z m0 128a21.333333 21.333333 0 0 0 0 42.666667h384a21.333333 21.333333 0 0 0 0-42.666667H320z m0-256a21.333333 21.333333 0 0 0 0 42.666667h384a21.333333 21.333333 0 0 0 0-42.666667H320zM405.333333 704h213.333334a21.333333 21.333333 0 0 1 0 42.666667H405.333333a21.333333 21.333333 0 0 1 0-42.666667z"  horiz-adv-x="1024" />

    
    <glyph glyph-name="youhuiquan" unicode="&#58953;" d="M850.204444 420.408889a28.444444 28.444444 0 0 1 0 56.888889h-184.32l202.524445 166.684444a29.098667 29.098667 0 1 1-36.977778 44.942222l-212.764444-174.933333-212.764445 174.933333A28.444444 28.444444 0 1 1 369.777778 645.404444l202.524444-166.684444h-187.733333a28.444444 28.444444 0 0 1 0-56.888889h203.662222v-87.324444h-203.662222a28.444444 28.444444 0 0 1 0-56.888889h203.662222V99.555556a28.444444 28.444444 0 1 1 56.888889 0v175.502222h203.662222a28.444444 28.444444 0 0 1 0 56.888889h-202.24v88.462222zM1227.946667 524.231111l23.608889 3.982222V696.888889a199.111111 199.111111 0 0 1-199.111112 199.111111H199.111111a199.111111 199.111111 0 0 1-199.111111-199.111111v-168.675556l23.608889-3.982222a142.222222 142.222222 0 0 0 0-280.462222l-23.608889-3.982222V71.111111a199.111111 199.111111 0 0 1 199.111111-199.111111h853.333333a199.111111 199.111111 0 0 1 199.111112 199.111111v168.675556l-23.608889 3.982222a142.222222 142.222222 0 0 0 0 280.462222zM1052.444444 384a199.111111 199.111111 0 0 1 142.222223-190.862222V71.111111a142.222222 142.222222 0 0 0-142.222223-142.222222H199.111111a142.222222 142.222222 0 0 0-142.222222 142.222222v122.026667a199.111111 199.111111 0 0 1 0 381.724444V696.888889a142.222222 142.222222 0 0 0 142.222222 142.222222h853.333333a142.222222 142.222222 0 0 0 142.222223-142.222222v-122.026667A199.111111 199.111111 0 0 1 1052.444444 384z"  horiz-adv-x="1251" />

    
    <glyph glyph-name="canshupeizhi" unicode="&#59020;" d="M256 768h768v-64H256zM0 384h768v-64H0zM256 0h768v-64H256zM0 832h192V640H0V832zM64 768v-64H128V768H64zM832 448H1024V256H832V448zM896 384v-64h64V384H896zM0 64h192V-128H0V64z m64-64v-64H128V0H64z"  horiz-adv-x="1024" />

    
    <glyph glyph-name="wujingongju-" unicode="&#58914;" d="M986.211044 723.940051c-8.11015 15.596442-27.57451 21.710247-43.170952 13.475326-2.370659-1.372487-4.242232-3.24406-6.113805-4.990861-1.497258-0.998172-3.119288-1.62203-4.491776-2.994517L768.734256 565.604971 692.873161 641.466066 856.573417 805.166321c2.495431 2.495431 4.117461 5.489948 5.614719 8.484465 0.623858 0.998172 1.497258 1.497258 1.996345 2.495431 8.11015 15.721214 2.121116 34.93603-13.475326 43.170951C805.417087 882.774217 754.5103 895.251371 703.229199 895.251371c-176.052638 0-319.415133-143.237724-319.415134-319.415134 0-32.315828 6.238577-62.884854 15.222128-92.330937L235.959795 320.304131c-0.124772-0.124772-0.124772-0.374315-0.374315-0.499087-2.620202 0.124772-4.990861 0.499086-7.611064 0.499087h-3.867917c-121.527477 0-221.469477-97.696113-223.590594-219.597905-2.121116-123.274278 96.323626-225.337395 219.597905-227.458511h3.867917c121.527477 0 221.469477 97.696113 223.590594 219.597905 0.124772 6.737663-0.873401 13.225783-1.247716 19.713902l160.331425 160.331425c30.569026-9.856951 62.635311-16.594614 96.448397-16.594615 176.052638 0 319.415133 143.237724 319.415134 319.415134 0 51.655416-12.477154 102.811746-36.308517 148.228585z m-585.42805-566.462776c-1.62203-1.62203-2.495431-3.743146-3.743146-5.614719-10.605581-6.48812-16.968929-18.965274-14.972584-32.066285 1.247715-8.359693 1.746802-17.0937 1.62203-25.827708-1.497258-87.963933-74.363836-157.336908-162.452541-156.837821-88.088705 1.62203-158.459851 74.488607-156.837821 162.452541 1.497258 87.963933 74.363836 157.461679 162.202997 156.837821 6.363348-0.124772 12.851468-0.623858 19.090046-1.497259 14.348727-2.370659 27.200195 5.989034 32.939685 18.590959 0.873401 0.748629 1.871573 0.998172 2.620202 1.746802l144.734983 144.734982c28.073596-49.783843 68.624345-90.833679 118.033873-119.531132L400.782994 157.477275z m302.446205 162.951627c-140.867065 0-255.532107 114.540271-255.532107 255.532107 0 140.867065 114.665042 255.532107 255.532107 255.532107 26.202023 0 52.154502-4.491775 76.984038-12.352382L625.122217 664.049714c-5.989034-5.989034-9.357865-14.099184-9.357865-22.583648 0-8.484464 3.368831-16.594614 9.357865-22.583649l121.02839-121.02839c6.238577-6.238577 14.473498-9.357865 22.583649-9.357865 8.234921 0 16.345071 3.119288 22.583648 9.357865L946.408924 652.945047c7.860607-24.829536 12.352382-50.782015 12.352382-76.984038-0.124772-140.991836-114.665042-255.532107-255.532107-255.532107z m0 0M224.106499 188.919703c-52.903131 0-95.82454-42.796637-95.82454-95.82454 0-52.903131 42.921409-95.82454 95.82454-95.82454s95.82454 42.796637 95.82454 95.82454c0 52.903131-42.921409 95.82454-95.82454 95.82454z m0-159.707567c-35.185573 0-63.883027 28.697453-63.883027 63.883027 0 35.185573 28.697453 63.883027 63.883027 63.883026 35.185573 0 63.883027-28.572682 63.883026-63.883026 0-35.310345-28.697453-63.883027-63.883026-63.883027z m0 0"  horiz-adv-x="1024" />

    
    <glyph glyph-name="chakanxiangqing" unicode="&#58908;" d="M360.08448 543.82592h276.48v-40.96h-276.48zM360.08448 437.38624h276.48v-40.96h-276.48zM360.08448 328.99584h122.88v-40.96h-122.88zM472.90368 148.48H293.52448V619.52h409.6v-223.09376a20.48 20.48 0 0 1 40.96 0V619.52c0 22.58432-18.37568 40.96-40.96 40.96h-409.6c-22.58432 0-40.96-18.37568-40.96-40.96v-471.04c0-22.58432 18.37568-40.96 40.96-40.96h179.3792a20.48 20.48 0 0 1 0 40.96zM765.57312 150.016l-54.7328 55.76192a106.73664 106.73664 0 0 1 16.78336 57.43616c0 59.28448-48.2304 107.52-107.52 107.52s-107.52-48.23552-107.52-107.52 48.2304-107.52 107.52-107.52c23.36256 0 44.94336 7.57248 62.59712 20.2752l53.632-54.64576a20.4288 20.4288 0 0 1 14.6176-6.13376 20.48 20.48 0 0 1 14.62272 34.82624z m-145.46944 46.63808c-36.70016 0-66.56 29.85984-66.56 66.56s29.85984 66.56 66.56 66.56 66.56-29.85984 66.56-66.56-29.85472-66.56-66.56-66.56z"  horiz-adv-x="1024" />

    
    <glyph glyph-name="-redu" unicode="&#58893;" d="M514.56 883.2c-50.688-172.544-88.064-461.824 0-519.168 88.064-57.344 176.64 94.208 102.912 393.216 113.664-145.408 281.088-381.952 281.088-513.024 0-198.656-172.032-359.424-384-359.424s-384 160.768-384 359.424c0 198.656 146.432 430.08 384 638.976z"  horiz-adv-x="1024" />

    
    <glyph glyph-name="-fufeiyuedu" unicode="&#58894;" d="M74.24 472.576v-330.24c0-36.352 29.696-66.048 66.048-66.048h758.784c36.352 0 66.048 29.696 66.048 66.048V472.576h-890.88z m89.088-193.536h165.888v-29.696H163.328v29.696z m265.728-96.256H163.328v29.696h265.728v-29.696z m536.064 440.832v-62.976h-890.88V623.616c0 36.352 29.696 66.048 66.048 66.048h758.784c36.352 0 66.048-29.696 66.048-66.048z"  horiz-adv-x="1024" />

    
    <glyph glyph-name="-xinxi" unicode="&#58896;" d="M931.328 685.056H93.184c-25.6 0-46.592 20.992-46.592 46.592s20.992 46.592 46.592 46.592h838.144c25.6 0 46.592-20.992 46.592-46.592s-20.992-46.592-46.592-46.592z m46.592-302.592c0 25.6-20.992 46.592-46.592 46.592H93.184c-25.6 0-46.592-20.992-46.592-46.592s20.992-46.592 46.592-46.592h838.144c25.6 0 46.592 20.992 46.592 46.592z m0-349.696c0 25.6-20.992 46.592-46.592 46.592H93.184c-25.6 0-46.592-20.992-46.592-46.592s20.992-46.592 46.592-46.592h838.144c25.6 0.512 46.592 20.992 46.592 46.592z"  horiz-adv-x="1024" />

    
    <glyph glyph-name="-xianxing-weiguanzhurenxiaoxi" unicode="&#58898;" d="M835.584 749.056H188.416c-69.12 0-124.928-55.808-124.928-124.928v-502.272c0-69.12 55.808-124.928 124.928-124.928h647.168c69.12 0 124.928 55.808 124.928 124.928V624.128c0 68.608-56.32 124.928-124.928 124.928z m-28.16-84.992l-261.632-209.92c-19.968-15.872-47.616-15.872-67.584 0l-261.632 209.92h590.848z m28.16-582.144H188.416c-22.016 0-39.936 17.92-39.936 39.936V609.792l276.48-221.696c25.6-20.48 56.32-30.72 87.04-30.72s61.44 10.24 87.04 30.72l276.48 221.696v-487.936c0-22.016-17.92-39.936-39.936-39.936z"  horiz-adv-x="1024" />

    
    <glyph glyph-name="shouji" unicode="&#58911;" d="M748.106828-127.837918H275.636399A99.552765 99.552765 0 0 0 170.666667-34.768451V802.81409A99.552765 99.552765 0 0 0 275.636399 895.840903h472.470429A99.552765 99.552765 0 0 0 853.119214 802.81409v-837.582541A99.595419 99.595419 0 0 0 748.106828-127.837918zM725.159361 853.187619H298.626519a98.998273 98.998273 0 0 1-85.306568-85.306568h597.145979a99.040926 99.040926 0 0 1-85.306569 85.306568z m85.306569-127.959853H213.319951v-639.799263h597.145979V725.227766z m0-682.452547H213.319951v-42.653284c0-51.397207 69.951386-85.306568 127.959852-85.306568h341.226274c57.965813 0 127.959853 33.909361 127.959853 85.306568v42.653284z m-298.57299-77.54367a23.416653 23.416653 0 1 0 26.23177 23.246039 24.909518 24.909518 0 0 0-26.23177-23.246039z"  horiz-adv-x="1024" />

    
    <glyph glyph-name="shangpinzhongxin" unicode="&#58890;" d="M813.768627 492.632076h-97.282986a35.504739 35.504739 0 0 1 0-71.009479h13.491801A189.595308 189.595308 0 0 0 538.961944 256.880606a189.595308 189.595308 0 0 0-190.305403 164.741991H355.047394a35.504739 35.504739 0 0 1 0 71.009479H260.604787a35.504739 35.504739 0 0 1 0-71.009479h16.33218A259.894692 259.894692 0 0 1 538.961944 185.871128a259.894692 259.894692 0 0 1 262.024977 237.171659h12.781706a35.504739 35.504739 0 1 1 0 71.009478zM1071.533035 816.435299A75.270048 75.270048 0 0 1 994.132703 895.965915H83.791185A75.270048 75.270048 0 0 1 7.100948 816.435299L0-60.531764a75.980142 75.980142 0 0 1 76.690237-67.459005h923.123224a75.980142 75.980142 0 0 1 76.690238 67.459005zM83.791185 824.956437H994.132703a7.811043 7.811043 0 0 0 5.680758 0v-148.409811h-923.123224v142.018958V824.956437a6.390853 6.390853 0 0 0 7.100948 0zM1001.233651-56.271195h-923.123224a7.811043 7.811043 0 0 0-5.680759 0l4.970664 657.547773h923.123224l4.970664-657.547773a7.811043 7.811043 0 0 0-4.260569 0z"  horiz-adv-x="1077" />

    
    <glyph glyph-name="liebiao2" unicode="&#59003;" d="M0 896h204.8v-204.8H0V896zM409.6 896h1228.8v-204.8H409.6V896zM0 486.4h204.8v-204.8H0V486.4zM409.6 486.4h1228.8v-204.8H409.6V486.4zM0 76.8h204.8v-204.8H0zM409.6 76.8h921.6v-204.8H409.6z"  horiz-adv-x="1638" />

    
    <glyph glyph-name="qiche" unicode="&#58912;" d="M742.3 28.7h-37.9c-48.8 0-88.5 39.7-88.5 88.5 0 1.2 0 2.3 0.1 3.5H400.3c0-1.1 0.1-2.3 0.1-3.4 0-48.8-39.7-88.5-88.5-88.5H274c-48.8 0-88.5 39.7-88.5 88.5 0 3.2 0.2 6.4 0.5 9.6-52.9 16.8-91 66.4-91 123.9v139c0 66.7 50.4 121.8 115.1 129.2L256 645.2c19.3 53 70.1 88.6 126.5 88.6h23.8c13.8 0 25-11.2 25-25s-11.2-25-25-25h-23.8c-35.4 0-67.4-22.4-79.5-55.7l-51.6-141.9c-3.6-9.9-13-16.5-23.5-16.5H225c-44.1 0-80-35.9-80-80v-139.1c0-41.7 32.6-76.7 74.3-79.7 8.4-0.6 15.9-5.4 20-12.7 4.1-7.3 4.3-16.2 0.4-23.7-2.8-5.5-4.3-11.3-4.3-17.4 0-21.2 17.3-38.5 38.5-38.5H312c21.2 0 38.5 17.3 38.5 38.5 0 5.9-1.4 11.7-4.2 17.2-3.9 7.8-3.5 17 1 24.4 4.5 7.4 12.6 11.9 21.3 11.9h279.2c8.7 0 16.8-4.5 21.3-11.9s4.9-16.6 1-24.4c-2.8-5.4-4.2-11.2-4.2-17.2 0-21.2 17.3-38.5 38.5-38.5h37.9c21.2 0 38.5 17.3 38.5 38.5 0 5.9-1.4 11.7-4.2 17.2-3.9 7.8-3.5 17 1 24.4 4.5 7.4 12.6 11.9 21.3 11.9h1c44.1 0 80 35.9 80 80V389.8c0 44.1-35.9 80-80 80H797c-10.5 0-19.9 6.6-23.5 16.5L722 628.1c-12.1 33.3-44 55.7-79.5 55.7h-118c-13.8 0-25 11.2-25 25s11.2 25 25 25h118c56.4 0 107.2-35.6 126.5-88.6L814.9 519c64.7-7.4 115.1-62.5 115.1-129.2v-139.1c0-61.2-42.5-112.6-99.5-126.4 0.2-2.3 0.3-4.7 0.3-7.1 0-48.8-39.7-88.5-88.5-88.5zM700.2 437.2H322c-8.2 0-15.9 4-20.6 10.8s-5.7 15.4-2.8 23.1l58.2 152.1c3.7 9.7 13 16.1 23.4 16.1H645c10.5 0 19.9-6.6 23.5-16.5l55.3-152.1c2.8-7.7 1.7-16.2-3-22.9-4.8-6.6-12.4-10.6-20.6-10.6z m-341.9 50h306.2l-37.1 102.1h-230l-39.1-102.1zM291.3 311.6m-59.1 0a59.1 59.1 0 1 1 118.2 0 59.1 59.1 0 1 1-118.2 0ZM740 311.6m-59.1 0a59.1 59.1 0 1 1 118.2 0 59.1 59.1 0 1 1-118.2 0Z"  horiz-adv-x="1024" />

    
    <glyph glyph-name="xihuan" unicode="&#58886;" d="M810 744.2c-193.3 74.9-296.1-72.3-297.8-74.7-1.7 2.5-104.5 149.7-297.8 74.7C20.9 669.2-67.3 297.6 477 3.9c15.4-8.3 27.7-10.8 35.2-11h0.1c7.5 0.3 19.7 2.7 35.2 11 544.2 293.8 456 665.3 262.5 740.3zM542.3 74.4c-13.1-7.4-23.8-9.3-30.2-9.5-6.4 0.2-17.1 2.1-30.2 9.5C0.6 347.3 95.4 636.2 263.3 686.8 411 731.3 469.6 587.9 512 587.3v-0.1h0.2v0.1c42.4 0.6 101 144.1 248.7 99.5 168-50.6 268.9-335.4-218.6-612.4z m0 0"  horiz-adv-x="1024" />

    
    <glyph glyph-name="dingyue" unicode="&#58895;" d="M533.1 317.9c-5-5-12-8.1-19.6-8.1-15.3 0-27.7 12.4-27.7 27.7V566.1c0 15.3 12.4 27.7 27.7 27.7 15.3 0 27.7-12.4 27.7-27.7v-228.6c0-7.6-3.1-14.6-8.1-19.6zM647.4 471.5c5-5 8.1-12 8.1-19.6 0-15.3-12.4-27.7-27.7-27.7H399.2c-15.3 0-27.7 12.4-27.7 27.7 0 15.3 12.4 27.7 27.7 27.7h228.6c7.7 0 14.6-3.1 19.6-8.1zM152-41.2V810.1c0 12.1 9.8 21.9 21.9 21.9h676.9c12.1 0 21.9-9.8 21.9-21.9v-845.6c0-16.9-18.3-27.5-33-19L528.3 126.6c-6.8 4-15.2 4-22.1 0L185-60.2c-14.7-8.5-33 2.1-33 19z m55.5 817.8v-759.5l309.8 180.1 300-174.4V776.6H207.5z"  horiz-adv-x="1024" />

    
    <glyph glyph-name="im_sousuo_c" unicode="&#58880;" d="M936.265 41.65999999999997L757.43 220.48000000000002c46.499 63.168 74.02 141.125 74.02 225.398 0 210.1-170.945 381.039-381.055 381.039S69.346 655.977 69.346 445.878c0-210.105 170.94-381.043 381.049-381.043 84.275 0 162.235 27.52 225.405 74.019l178.833-178.819c11.27-11.265 26.036-16.903 40.813-16.903 14.777 0 29.543 5.638 40.819 16.903 22.536 22.546 22.536 59.09 0 81.625zM163.14 445.878C163.14 604.267 292 733.13 450.396 733.13s287.261-128.862 287.261-287.252c0-158.39-128.867-287.252-287.261-287.252S163.14 287.48800000000006 163.14 445.878z"  horiz-adv-x="1024" />

    
    <glyph glyph-name="zy_peisong" unicode="&#58881;" d="M215.733 473.683l37.384 37.384c17.378 0.164 31.42 14.297 31.42 31.715 0 10.799-5.4 20.331-13.645 26.061V677.858c0 10.55-8.552 19.101-19.102 19.101-10.548 0-19.1-8.552-19.1-19.101v-110.555c-7.081-5.82-11.598-14.641-11.598-24.52 0-3.502 0.575-6.869 1.624-10.02l-33.031-33.03c-7.194-7.194-7.194-18.855 0-26.05s18.856-7.193 26.05 0zM831.49 583.443H628.963V637.96c0 23.296-19.753 42.18-44.118 42.18h-174.8c-38.666 46.633-97.036 76.338-162.347 76.338-116.423 0-210.8-94.379-210.8-210.8 0-45.855 14.649-88.284 39.51-122.88v-271.456c0-23.295 19.753-42.18 44.118-42.18h53.007c9.073-55.005 56.84-96.964 114.416-96.964 57.576 0 105.344 41.96 114.416 96.964h182.482c8.472 0 16.384 2.287 23.104 6.246 6.012-3.962 13.051-6.245 20.58-6.245h39.236c9.07-55.006 56.838-96.965 114.415-96.965s105.345 41.96 114.417 96.965h52.574c22.081 0 39.982 19.61 39.982 43.796V384.106C991.643 415.21 858.1 585.5899999999999 831.49 583.443zM81.24 545.678c0 55.24 26.916 104.186 68.337 134.463 27.516 20.113 61.428 31.995 98.121 31.995s70.605-11.882 98.12-31.995a167.438 167.438 0 0 0 38.733-39.695c18.659-26.897 29.606-59.551 29.606-94.767 0-91.932-74.526-166.457-166.458-166.457-54.875 0-103.541 26.558-133.864 67.516-20.478 27.66-32.595 61.884-32.595 98.94z m277.898-436.513c-8.384-31.475-37.074-54.67-71.19-54.67s-62.803 23.194-71.186 54.67a73.68 73.68 0 0 0-2.49 19.01c0 6.44 0.831 12.685 2.384 18.641 8.256 31.663 37.044 55.036 71.293 55.036 34.25 0 63.038-23.373 71.294-55.036a73.758 73.758 0 0 0 2.384-18.642c-0.001-6.575-0.874-12.943-2.49-19.009z m232.401 447.112c-1.923-5.128-2.99-10.741-2.99-16.629v-370.546c-5.787-13.095-19.347-22.287-35.154-22.287h-150.97c-8.92 55.187-56.773 97.333-114.477 97.333s-105.556-42.147-114.476-97.333h-21.496c-21.066 0-38.143 16.326-38.143 36.466V382.83299999999997c36.405-29.962 83.035-47.956 133.864-47.956 116.424 0 210.8 94.379 210.8 210.8 0 34.085-8.1 66.275-22.465 94.767h117.361c21.067 0 38.144-16.326 38.144-36.466v-47.702z m261.83-447.11c-8.384-31.476-37.073-54.671-71.189-54.671s-62.804 23.194-71.188 54.67a73.677 73.677 0 0 0 0.282 39.013c8.72 30.966 37.152 53.673 70.906 53.673s62.187-22.707 70.907-53.673a73.704 73.704 0 0 0 0.282-39.013z m96.826 75.318c0-20.05-14.282-36.307-31.9-36.307h-21.866c-9.48 54.517-57.021 95.97-114.25 95.97s-104.77-41.453-114.248-95.97h-5.457c-17.618 0-31.9 16.259-31.9 36.307v320.57c0 20.053 14.281 36.306 31.9 36.306h161.93c7.151-7.857 16.522-18.897 26.926-31.593H750.28c-23.77 0-43.037-20.658-43.037-46.141v-98.041c0-25.484 19.268-46.143 43.037-46.143h196.345c1.203 0 2.39 0.068 3.568 0.171v-135.13z m0 169.096l-0.01 1.767-169.032-0.095c-20.662 0-37.413 12.523-37.413 27.974v59.438c0 15.45 16.75 27.973 37.413 27.973l101.334 0.136c32.946-42.158 65.253-86.244 67.707-94.665v-22.527z"  horiz-adv-x="1024" />

    
    <glyph glyph-name="mn_dianhua" unicode="&#58882;" d="M233.597 764.935c4.711-4.213 11.698-11.154 21.068-22.252 13.852-16.396 29.342-37.601 44.793-61.312 29.966-45.988 48.67-84.091 54.057-98.606-1.268-5.065-4.847-11.427-11.478-22.565-12.487-20.96-29.585-49.668-29.585-90.385 0-25.946 12.077-53.988 39.162-90.906 17.694-24.125 41.225-51.268 68.05-78.5 26.078-26.476 53.276-50.864 76.588-68.664 36.748-28.067 63.36-40.04 88.976-40.04 36.02 0 64.768 15.33 87.863 27.648 12.678 6.757 24.736 13.18 33.55 14.627 12.478-4.418 48.47-22.738 102.08-61.058 45.25-32.35 73.13-57.437 85.689-70.644-4.174-22.76-17.558-46.092-38.13-65.848-12.017-11.545-25.757-21.07-39.726-27.541-12.1-5.606-24.066-8.695-33.685-8.695-55.344 0-124.355 23.279-199.567 67.326-73.481 43.036-149.693 103.88-220.4 175.963-69.495 70.846-128.544 147.201-170.767 220.796-21.014 36.634-37.181 71.52-48.06 103.685-10.541 31.16-15.884 59.024-15.884 82.808 0 7.966 3.642 18.703 10.254 30.234 7.844 13.685 19.59 28.163 33.96 41.852 13.524 12.882 29.107 24.73 43.88 33.36 7.073 4.135 12.905 6.908 17.312 8.717m7.523 66.778c-52.008 0-176.836-94.456-176.836-180.941 0-252.804 435.125-714.483 718.585-714.483 78.025 0 176.845 83.817 176.845 180.955 0 33.255-202.848 180.942-249.66 180.942-48.11 0-83.217-42.569-124.827-42.569s-208.87 167.64-208.87 214.197c0 46.578 41.605 69.186 41.605 117.085C417.96 621.4970000000001 293.13 831.713 241.12 831.713z m0 0"  horiz-adv-x="1024" />

    
    <glyph glyph-name="im_dingwei" unicode="&#58883;" d="M570.853 495.304c13.24 13.245 20.946 31.854 20.946 50.578 0 18.728-7.706 37.337-20.946 50.579-13.243 13.241-31.853 20.953-50.582 20.953-18.723 0-37.335-7.71-50.577-20.953-13.24-13.24-20.952-31.85-20.952-50.58 0-18.723 7.71-37.331 20.952-50.577 13.24-13.236 31.854-20.952 50.577-20.952 18.73 0 37.338 7.717 50.582 20.952z m0 0M515.259 64.55999999999995h0.005c13.894 0 26.985 6.44 35.298 17.377C627.4 182.98000000000002 802.949 427.167 802.949 549.091c0 156.091-128.8 282.62-287.69 282.62-158.882 0-287.677-126.528-287.677-282.62 0-121.924 175.555-366.128 252.383-467.16 8.316-10.935 21.4-17.371 35.294-17.371z m0 715.63c129.713 0 235.24-103.664 235.24-231.095 0-68.455-81.817-220.15-215.458-400.992-4.603-6.223-11.948-9.902-19.777-9.902-7.826 0-15.176 3.679-19.774 9.902-133.645 180.843-215.467 332.529-215.467 400.992 0 127.431 105.533 231.094 235.236 231.094z m0 0M871.353 110.32500000000005c-13.803 13.654-32.706 24.935-54.636 32.615-22.485 7.873-47.325 11.871-73.859 11.871l-3.32-0.03-3.97-0.344c-12.231-1.198-21.819-11.394-22.3-23.71-0.279-6.62 2.061-12.951 6.558-17.818 4.502-4.87 10.618-7.694 17.234-7.955l29.052-1.14 1.6 0.053c42.362-5.327 63.414-23.299 68.884-28.7 6.294-6.218 10.207-13.162 10.207-18.12 0-8.502-17.826-29.147-85.294-46.464-62.448-16.013-150.552-24.841-248.082-24.841-97.615 0-186.237 8.923-249.527 25.107-68.575 17.548-86.699 38.233-86.699 46.716 0 12.132 3.776 19.358 13.453 25.788 13.036 8.657 34.643 14.34 63.749 16.907 0.97-0.15 1.96-0.24 4.674-0.24 0.147 0 28.625 1.632 28.625 1.632 13.66 0.809 24.128 12.56 23.338 26.213-0.774 13.308-11.954 23.337-26.007 23.337-0.025 0-4.22-0.24-4.198-0.24-54.1-1.174-92.545-9.814-117.537-26.418-23.577-15.67-35.539-38.203-35.539-66.974 0-23.41 13.26-43.927 39.424-60.983 20.13-13.132 48.548-24.446 84.465-33.631 67.201-17.201 160.166-26.664 261.778-26.664 101.55 0 194.024 9.373 260.362 26.402 35.53 9.106 63.65 20.384 83.583 33.515 25.79 16.986 38.865 37.457 38.865 60.835 0.002 18.77-8.598 37.198-24.883 53.28z m0 0"  horiz-adv-x="1024" />

    
    <glyph glyph-name="im_fankui" unicode="&#58884;" d="M767.41-63.702H190.483c-53.059 0-96.123 43.067-96.123 96.128V673.26c0 53.056 43.064 96.122 96.123 96.122h448.585c17.745 0 32.043-14.297 32.043-32.04 0-17.746-14.3-32.043-32.043-32.043H190.483c-17.57 0-32.042-14.47-32.042-32.04v-640.835c0-17.745 14.472-32.044 32.042-32.044h576.752c17.745 0 32.043 14.3 32.043 32.044v512.84c0 17.742 14.298 32.04 32.04 32.04 17.745 0 32.043-14.298 32.043-32.04V32.60000000000002c0.17-53.063-43.066-96.3-95.951-96.3z m0 0M579.12 449.138c-8.268 0-16.366 3.1-22.738 9.476a31.916 31.916 0 0 0 0 45.306L874.902 822.27a31.914 31.914 0 0 0 45.305 0 31.916 31.916 0 0 0 0-45.306l-318.52-318.52c-6.2-6.205-14.47-9.305-22.567-9.305z m0 0M446.817 449.138h-192.25c-17.74 0-32.041 14.298-32.041 32.043 0 17.741 14.3 32.04 32.041 32.04h192.25c17.747 0 32.043-14.299 32.043-32.04-0.001-17.745-14.297-32.043-32.043-32.043z m0 0M639.242 256.88800000000003H254.567c-17.74 0-32.041 14.298-32.041 32.043 0 17.742 14.3 32.04 32.041 32.04h384.5c17.746 0 32.044-14.298 32.044-32.04 0-17.745-14.298-32.043-31.869-32.043z m0 0"  horiz-adv-x="1024" />

    
    <glyph glyph-name="zhekou" unicode="&#58885;" d="M291.456 831.62c43.706 0 87.413-0.15 131.123 0.061 24.603 0.112 45.42-8.275 65.469-22.72 19.255-13.874 35.237-30.748 51.752-47.219C670.06 631.75 800.136 501.576 930.25 371.43399999999997c30.13-30.13 38.005-75.036 19.027-112.616-4.537-8.987-10.717-17.62-17.82-24.754-89.683-90.13-179.605-180.025-269.6-269.839-37.16-37.09-98.573-37.334-135.683-0.291-140.73 140.502-281.48 280.984-421.637 422.051-17.07 17.178-32.292 36.924-37.63 61.832-1.476 6.892-2.314 14.06-2.327 21.103-0.149 90.34-0.165 180.683-0.071 271.02 0.06 51.048 39.124 90.955 90.18 91.524 45.58 0.508 91.174 0.108 136.76 0.108 0.006 0.018 0.006 0.035 0.006 0.049z m-0.175-60.617h-18.816c-38.468 0-76.946 0.09-115.419-0.046-19.14-0.066-32.106-12.53-32.124-31.002-0.096-90.328-0.102-180.658 0.114-270.983 0.01-5.012 1.156-10.768 3.792-14.886 6.265-9.768 12.75-19.75 20.888-27.91 138.759-139.178 277.79-278.085 416.766-417.052 16.49-16.49 38.33-16.424 54.902 0.15 88.271 88.26 176.292 176.775 265.034 264.556 15.21 15.048 15.21 41.211 0.066 56.24-115.75 114.892-230.634 230.66-346.381 345.554-29.122 28.91-55.515 60.719-89.242 84.981-8.992 6.473-17.47 10.535-28.478 10.481-43.698-0.209-87.4-0.083-131.102-0.083z m0 0M306.234 468.346c-66.877 0.221-121.252 54.878-120.953 121.574 0.3 66.636 54.61 120.569 121.287 120.45 67.36-0.126 121.096-54.42 120.785-122.034-0.303-66.105-54.921-120.206-121.119-119.99z m-0.018 60.718c33.428-0.102 60.712 27.014 60.748 60.36 0.035 33.038-27.062 60.311-60.06 60.454-33.53 0.144-60.736-26.626-61.064-60.083-0.325-33.183 26.958-60.623 60.376-60.731z m0 0"  horiz-adv-x="1024" />

    
    <glyph glyph-name="mn_shoucang" unicode="&#58887;" d="M707.839 800.288c-77.046 0-148.69-38.651-195.835-102.384-47.128 63.751-118.756 102.384-195.846 102.384-138.89 0-251.885-123.539-251.885-275.406 0-90.602 40.47-154.153 73.007-205.222 94.55-148.323 332.28-332.91 342.351-340.695 9.701-7.5 21.043-11.253 32.36-11.253 11.339 0 22.663 3.753 32.35 11.253 10.086 7.783 247.832 192.37 342.354 340.695 32.547 51.069 73.032 114.62 73.032 205.222-0.001 151.867-113.007 275.406-251.888 275.406zM840.7 354.71299999999997C750.705 213.48000000000002 511.989 29.01400000000001 511.989 29.01400000000001S273.298 213.48000000000002 183.271 354.71299999999997c-33.207 52.132-62.94 101.694-62.94 170.169 0 118.237 87.666 214.123 195.827 214.123 79.932 0 148.553-52.441 178.99-127.518v0.372h0.084c2.267-7.82 8.88-13.536 16.757-13.536 7.896 0 14.508 5.715 16.757 13.536h0.235c30.513 74.86 99.033 127.15 178.857 127.15 108.137 0 195.824-95.89 195.824-214.127 0-68.475-29.732-118.027-62.961-170.169z m0 0"  horiz-adv-x="1024" />

    
    <glyph glyph-name="icon-test1" unicode="&#58902;" d="M828.5 9.700000000000045H238.4c-9.9 0-18 8.1-18 18v4c0 9.9 8.1 18 18 18h590.1c9.9 0 18-8.1 18-18v-4c0-9.9-8.1-18-18-18zM828.5 211.39999999999998H238.4c-9.9 0-18 8.1-18 18v4c0 9.9 8.1 18 18 18h590.1c9.9 0 18-8.1 18-18v-4c0-9.9-8.1-18-18-18zM409 446.5H230.2c-17.6 0-32 14.4-32 32V657.3c0 17.6 14.4 32 32 32H409c17.6 0 32-14.4 32-32v-178.8c0-17.6-14.4-32-32-32z m-170.8 40H401V649.3H238.2v-162.8zM822.4 458.5H552.9c-11 0-20 9-20 20s9 20 20 20h269.5c11 0 20-9 20-20s-9-20-20-20zM822.4 626.5H552.9c-11 0-20 9-20 20s9 20 20 20h269.5c11 0 20-9 20-20s-9-20-20-20zM884.4-128H182.5c-46.3 0-83.9 37.7-83.9 83.9V804.1C98.6 850.3 136.3 888 182.5 888h701.9c46.3 0 83.9-37.7 83.9-83.9V-44c0-46.3-37.7-84-83.9-84zM182.5 848c-24.2 0-43.9-19.7-43.9-43.9V-44c0-24.2 19.7-43.9 43.9-43.9h701.9c24.2 0 43.9 19.7 43.9 43.9V804.1c0 24.2-19.7 43.9-43.9 43.9H182.5z"  horiz-adv-x="1024" />

    
    <glyph glyph-name="caidan" unicode="&#58964;" d="M886.186667 567.466667c5.546667 0 9.813333 6.826667 9.813333 14.08V655.786667c0 7.68-4.266667 14.08-9.813333 14.08H137.813333c-5.546667 0-9.813333-6.826667-9.813333-14.08v-74.24c0-7.68 4.266667-14.08 9.813333-14.08zM128 346.88c0-7.68 4.266667-14.08 9.813333-14.08h748.373334c5.546667 0 9.813333 6.826667 9.813333 14.08v74.24c0 7.68-4.266667 14.08-9.813333 14.08H137.813333c-5.546667 0-9.813333-6.826667-9.813333-14.08z m0-234.666667c0-7.68 4.266667-14.08 9.813333-14.08h748.373334c5.546667 0 9.813333 6.826667 9.813333 14.08v74.24c0 7.68-4.266667 14.08-9.813333 14.08H137.813333c-5.546667 0-9.813333-6.826667-9.813333-14.08z"  horiz-adv-x="1024" />

    
    <glyph glyph-name="tianjia" unicode="&#58971;" d="M896 426.666667h-341.333333V768a42.666667 42.666667 0 1 1-85.333334 0v-341.333333H128a42.666667 42.666667 0 0 1 0-85.333334h341.333333v-341.333333a42.666667 42.666667 0 0 1 85.333334 0v341.333333h341.333333a42.666667 42.666667 0 0 1 0 85.333334z"  horiz-adv-x="1024" />

    


  </font>
</defs>
</svg>
